<svg xmlns="http://www.w3.org/2000/svg" xmlns:xlink="http://www.w3.org/1999/xlink" width="800" zoomAndPan="magnify" viewBox="0 0 600 449.999984" height="600" preserveAspectRatio="xMidYMid meet" version="1.0"><defs><clipPath id="414862d6fe"><path d="M 163.015625 147.945312 L 436.765625 147.945312 L 436.765625 301.695312 L 163.015625 301.695312 Z M 163.015625 147.945312 " clip-rule="nonzero"/></clipPath><clipPath id="6ddeacb667"><path d="M 184.476562 152.394531 L 390.273438 152.394531 L 390.273438 279 L 184.476562 279 Z M 184.476562 152.394531 " clip-rule="nonzero"/></clipPath><clipPath id="38838a1269"><path d="M 184.476562 243.003906 L 390.273438 243.003906 L 390.273438 278.488281 L 184.476562 278.488281 Z M 184.476562 243.003906 " clip-rule="nonzero"/></clipPath><clipPath id="f6de585fc1"><path d="M 184.476562 213.746094 L 390.273438 213.746094 L 390.273438 271 L 184.476562 271 Z M 184.476562 213.746094 " clip-rule="nonzero"/></clipPath><clipPath id="0d12111fe6"><path d="M 184.476562 165 L 390.273438 165 L 390.273438 262.300781 L 184.476562 262.300781 Z M 184.476562 165 " clip-rule="nonzero"/></clipPath><clipPath id="c2df63baad"><path d="M 167.769531 213.125 L 171 213.125 L 171 218.105469 L 167.769531 218.105469 Z M 167.769531 213.125 " clip-rule="nonzero"/></clipPath><clipPath id="87081c7add"><path d="M 168 184.488281 L 171 184.488281 L 171 189.46875 L 168 189.46875 Z M 168 184.488281 " clip-rule="nonzero"/></clipPath><clipPath id="aedb6ecba4"><path d="M 167.769531 155.230469 L 171 155.230469 L 171 160 L 167.769531 160 Z M 167.769531 155.230469 " clip-rule="nonzero"/></clipPath><clipPath id="0ac64db2e9"><path d="M 400.113281 194.449219 L 412.566406 194.449219 L 412.566406 196.941406 L 400.113281 196.941406 Z M 400.113281 194.449219 " clip-rule="nonzero"/></clipPath><clipPath id="a066365801"><path d="M 400.113281 209 L 412.566406 209 L 412.566406 211 L 400.113281 211 Z M 400.113281 209 " clip-rule="nonzero"/></clipPath><clipPath id="f34797c560"><path d="M 400.113281 223.085938 L 412.566406 223.085938 L 412.566406 225.574219 L 400.113281 225.574219 Z M 400.113281 223.085938 " clip-rule="nonzero"/></clipPath><clipPath id="3a59aeb321"><path d="M 400.113281 237.402344 L 412.566406 237.402344 L 412.566406 239.890625 L 400.113281 239.890625 Z M 400.113281 237.402344 " clip-rule="nonzero"/></clipPath><clipPath id="914100c14c"><path d="M 425.613281 294 L 436.765625 294 L 436.765625 301.695312 L 425.613281 301.695312 Z M 425.613281 294 " clip-rule="nonzero"/></clipPath><clipPath id="accdb644cf"><path d="M 425 293 L 436.765625 293 L 436.765625 301.695312 L 425 301.695312 Z M 425 293 " clip-rule="nonzero"/></clipPath><clipPath id="085d269975"><path d="M 163.015625 147.945312 L 436.765625 147.945312 L 436.765625 301.695312 L 163.015625 301.695312 Z M 163.015625 147.945312 " clip-rule="nonzero"/></clipPath></defs><rect x="-60" width="720" fill="#ffffff" y="-44.999998" height="539.99998" fill-opacity="1"/><rect x="-60" width="720" fill="#ffffff" y="-44.999998" height="539.99998" fill-opacity="1"/><rect x="-60" width="720" fill="#ffffff" y="-44.999998" height="539.99998" fill-opacity="1"/><g clip-path="url(#414862d6fe)"><path stroke-linecap="square" transform="matrix(0.621367, 0, 0, 0.6225, -106.228339, 125.974706)" fill-opacity="1" fill="#f5f5f5" fill-rule="nonzero" stroke-linejoin="miter" d="M 66.998507 303.00248 L 889.001225 303.00248 L 889.001225 6.999719 L 66.998507 6.999719 Z M 66.998507 303.00248 " stroke="#f5f5f5" stroke-width="1" stroke-opacity="1" stroke-miterlimit="10"/><path stroke-linecap="square" transform="matrix(0.621367, 0, 0, 0.6225, -106.228339, 125.974706)" fill="none" stroke-linejoin="miter" d="M 66.998507 303.00248 L 889.001225 303.00248 L 889.001225 6.999719 L 66.998507 6.999719 Z M 66.998507 303.00248 " stroke="#aaaaaa" stroke-width="1" stroke-opacity="1" stroke-miterlimit="10"/><path stroke-linecap="square" transform="matrix(0.621367, 0, 0, 0.6225, -106.228339, 125.974706)" fill-opacity="1" fill="#ffffff" fill-rule="nonzero" stroke-linejoin="miter" d="M 430.002139 296.633253 L 883.003866 296.633253 L 883.003866 30.631747 L 430.002139 30.631747 Z M 430.002139 296.633253 " stroke="#ffffff" stroke-width="1" stroke-opacity="1" stroke-miterlimit="10"/></g><g clip-path="url(#6ddeacb667)"><path stroke-linecap="square" transform="matrix(0.621367, 0, 0, 0.6225, -106.228339, 125.974706)" fill="none" stroke-linejoin="miter" d="M 475.001187 52.971105 L 475.101771 53.127982 L 475.189783 53.278584 L 475.780718 54.201024 L 476.553962 55.443494 L 478.106737 57.98491 L 481.212288 63.249719 L 487.945171 75.486165 L 494.237997 87.816737 L 500.405092 100.555191 L 507.087683 114.818494 L 513.330216 128.228384 L 520.094532 142.479137 L 526.733118 155.813725 L 532.931645 167.38501 L 539.645669 178.755492 L 545.919635 188.149318 L 552.067871 196.181446 L 552.168455 196.306948 L 552.275326 196.43245 L 552.482782 196.683454 L 552.897694 197.179187 L 553.733804 198.158103 L 555.399736 200.059458 L 558.737889 203.611165 L 559.127654 204.000221 L 559.511133 204.389277 L 560.290664 205.15484 L 561.849726 206.642038 L 564.955276 209.415633 L 565.382761 209.773314 L 565.803959 210.124719 L 566.646355 210.81498 L 568.331147 212.151577 L 571.707019 214.611416 L 571.807604 214.686717 L 571.908188 214.755743 L 572.530556 215.18245 L 573.360379 215.728384 L 575.013739 216.795151 L 578.326745 218.752982 L 578.421043 218.809458 L 578.521627 218.859659 L 578.71651 218.966336 L 579.099989 219.179689 L 579.873233 219.600121 L 581.413436 220.397059 L 584.506413 221.884257 L 584.613284 221.928183 L 584.713869 221.978384 L 584.921324 222.07251 L 585.342523 222.260763 L 586.178632 222.624719 L 587.850852 223.32753 L 591.201577 224.613926 L 591.597629 224.751978 L 592.766925 225.166135 L 594.325987 225.686968 L 597.456684 226.647059 L 597.563555 226.678434 L 597.877882 226.772561 L 598.29908 226.891787 L 599.147763 227.123966 L 600.845128 227.575773 L 601.266326 227.68245 L 601.693811 227.789127 L 602.536207 228.00248 L 604.233573 228.397812 L 604.334157 228.422912 L 604.441029 228.448012 L 605.063396 228.579789 L 605.893219 228.768042 L 607.552865 229.113173 L 610.884731 229.746958 L 610.979029 229.765783 L 611.079614 229.778334 L 611.26821 229.815984 L 611.657976 229.88501 L 612.437506 230.016787 L 613.983995 230.274067 L 614.37376 230.336818 L 614.763526 230.393293 L 615.53677 230.51252 L 617.089545 230.744699 L 617.19013 230.757249 L 617.510743 230.80745 L 617.931942 230.863926 L 618.768051 230.976878 L 620.452844 231.196506 L 623.816142 231.598113 L 623.916727 231.610663 L 624.011025 231.616938 L 624.205908 231.642038 L 624.60196 231.685964 L 626.959412 231.930693 L 630.096395 232.225623 L 630.19698 232.231898 L 630.291278 232.244448 L 630.48616 232.256998 L 630.869639 232.294649 L 631.636597 232.3574 L 633.176799 232.482902 L 633.371682 232.501727 L 633.566565 232.514277 L 633.943757 232.545653 L 634.717001 232.602129 L 636.257203 232.715081 L 636.357788 232.721356 L 636.678401 232.740181 L 637.093313 232.771557 L 639.601642 232.934709 L 642.939794 233.135512 L 643.034093 233.141787 L 643.134677 233.141787 L 643.32956 233.154338 L 643.713039 233.173163 L 644.498856 233.217089 L 646.057918 233.298665 L 646.152216 233.298665 L 646.252801 233.311215 L 646.447683 233.31749 L 647.61698 233.373966 L 649.169755 233.442992 L 649.276626 233.449267 L 649.597239 233.461818 L 650.018438 233.480643 L 650.86712 233.518293 L 652.551913 233.581044 L 652.658784 233.58732 L 654.236705 233.650071 L 655.927784 233.706546 L 656.034656 233.712822 L 656.13524 233.712822 L 656.757608 233.737922 L 657.587431 233.763022 L 659.247077 233.819498 L 662.56637 233.913625 L 662.660668 233.913625 L 662.761253 233.9199 L 662.949849 233.9199 L 663.339614 233.93245 L 665.659347 233.995201 L 668.752324 234.064227 L 668.95978 234.064227 L 669.173522 234.076777 L 669.588434 234.083052 L 670.43083 234.095603 L 672.109336 234.133253 L 675.460062 234.196004 L 675.560646 234.196004 L 675.654944 234.202279 L 675.849827 234.202279 L 676.245879 234.208554 L 677.02541 234.221105 L 678.597045 234.246205 L 681.727741 234.290131 L 681.916337 234.290131 L 682.11122 234.296406 L 683.261657 234.315231 L 684.795572 234.334057 L 687.86969 234.365432 L 687.970275 234.371707 L 688.284602 234.371707 L 688.699513 234.377982 L 691.195269 234.403083 L 694.527135 234.434458 L 694.9169 234.434458 L 695.306666 234.440733 L 696.07991 234.447008 L 700.744522 234.484659 L 700.851393 234.490934 L 701.586918 234.490934 L 704.114107 234.509759 L 707.483692 234.528585 L 707.879744 234.528585 L 708.26951 234.53486 L 709.061614 234.541135 L 713.776518 234.55996 L 713.877103 234.55996 L 713.971401 234.566235 L 714.549762 234.566235 L 715.323007 234.57251 L 719.943613 234.591336 L 720.786009 234.591336 L 721.622119 234.597611 L 723.294338 234.603886 L 726.638777 234.610161 L 726.739362 234.616436 L 727.418308 234.616436 L 728.197839 234.622711 L 732.887597 234.635261 L 734.578676 234.635261 L 739.651913 234.654087 L 741.317846 234.654087 L 746.296785 234.666637 L 752.495313 234.672912 L 759.22191 234.685462 L 765.495876 234.691737 L 771.644111 234.698012 L 778.320416 234.704287 L 784.550376 234.710563 L 785.417918 234.710563 L 786.285461 234.716838 L 791.503288 234.716838 " stroke="#0000ff" stroke-width="2.308" stroke-opacity="1" stroke-miterlimit="3.25"/></g><g clip-path="url(#38838a1269)"><path stroke-linecap="square" transform="matrix(0.621367, 0, 0, 0.6225, -106.228339, 125.974706)" fill="none" stroke-linejoin="miter" d="M 475.001187 211.586818 L 475.101771 211.555442 L 475.189783 211.517791 L 475.384666 211.44249 L 475.780718 211.298163 L 476.553962 211.009508 L 478.106737 210.419649 L 481.212288 209.26503 L 487.945171 206.842842 L 494.237997 204.759508 L 494.332295 204.728133 L 494.432879 204.696757 L 494.621476 204.640281 L 495.011241 204.521054 L 495.778199 204.282601 L 497.318401 203.830793 L 500.405092 202.971105 L 500.505676 202.939729 L 500.820003 202.858153 L 501.241201 202.745201 L 503.74953 202.123966 L 503.850115 202.098866 L 503.956986 202.08004 L 504.164442 202.02984 L 505.42175 201.74746 L 507.087683 201.389779 L 507.483735 201.314478 L 507.867214 201.232902 L 508.646745 201.088575 L 510.212093 200.806195 L 510.312677 200.793645 L 510.406975 200.77482 L 510.595572 200.743444 L 511.771154 200.555191 L 513.330216 200.329287 L 513.437087 200.316737 L 513.543959 200.297912 L 514.178899 200.216336 L 515.021295 200.115934 L 515.235038 200.090834 L 515.869978 200.021807 L 516.712374 199.933956 L 516.819245 199.927681 L 516.91983 199.915131 L 517.139859 199.896305 L 517.561057 199.85238 L 517.667928 199.846105 L 517.768513 199.833554 L 517.982255 199.821004 L 518.403453 199.783354 L 518.824651 199.751978 L 519.252136 199.720603 L 520.094532 199.670402 L 520.201404 199.664127 L 520.301988 199.657852 L 520.509444 199.645301 L 520.924356 199.626476 L 521.031227 199.620201 L 521.131811 199.613926 L 521.339267 199.607651 L 521.754179 199.588826 L 521.86105 199.58255 L 521.961634 199.576275 L 522.16909 199.57 L 522.382833 199.563725 L 522.584002 199.55745 L 522.690873 199.55745 L 522.791458 199.551175 L 522.998913 199.5449 L 523.099498 199.5449 L 523.206369 199.538625 L 523.413825 199.53235 L 523.621281 199.53235 L 523.728152 199.526075 L 524.143064 199.526075 L 524.249935 199.519799 L 524.557975 199.519799 L 524.65856 199.513524 L 526.010166 199.513524 L 526.117037 199.519799 L 526.425077 199.519799 L 526.525662 199.526075 L 526.928 199.526075 L 527.122883 199.53235 L 527.317766 199.53235 L 527.506362 199.538625 L 527.606947 199.5449 L 527.701245 199.5449 L 528.285893 199.563725 L 528.474489 199.563725 L 528.675658 199.576275 L 529.059137 199.588826 L 529.159722 199.595101 L 529.25402 199.595101 L 529.448903 199.607651 L 529.832382 199.626476 L 530.027264 199.632751 L 530.222147 199.645301 L 530.605626 199.664127 L 530.70621 199.670402 L 530.800509 199.676677 L 530.995391 199.689227 L 531.37887 199.708052 L 531.479455 199.714328 L 531.573753 199.720603 L 531.768636 199.733153 L 532.158401 199.764528 L 532.931645 199.821004 L 533.139101 199.833554 L 533.346557 199.85238 L 533.767755 199.89003 L 534.610151 199.971607 L 534.717022 199.977882 L 534.823894 199.990432 L 535.031349 200.009257 L 535.452548 200.053183 L 536.288657 200.141034 L 536.395528 200.153585 L 536.496113 200.166135 L 536.709855 200.18496 L 537.131054 200.235161 L 537.967163 200.341838 L 539.645669 200.561466 L 539.746254 200.574016 L 539.846838 200.592842 L 540.431487 200.674418 L 541.217304 200.78737 L 542.782652 201.038374 L 545.919635 201.584307 L 546.108231 201.621958 L 546.303114 201.653334 L 546.686593 201.728635 L 547.453551 201.872962 L 548.993753 202.186717 L 552.067871 202.833052 L 558.737889 204.389277 L 564.955276 205.958052 L 571.707019 207.746456 L 578.326745 209.52231 L 584.506413 211.160111 L 591.201577 212.892038 L 597.456684 214.454538 L 604.233573 216.067239 L 610.884731 217.573263 L 617.089545 218.884759 L 623.816142 220.227631 L 630.096395 221.394799 L 636.257203 222.467842 L 642.939794 223.540884 L 649.169755 224.482149 L 655.927784 225.423414 L 662.56637 226.270552 L 668.752324 227.011014 L 675.460062 227.751476 L 681.727741 228.391536 L 687.86969 228.975121 L 694.527135 229.55243 L 700.744522 230.060713 L 707.483692 230.556446 L 713.776518 230.989428 L 719.943613 231.384759 L 726.638777 231.780091 L 732.887597 232.118946 L 739.651913 232.464077 L 746.296785 232.771557 L 752.495313 233.035111 L 759.22191 233.298665 L 765.495876 233.524569 L 771.644111 233.731647 L 778.320416 233.938725 L 784.550376 234.120703 L 784.764118 234.126978 L 784.984147 234.133253 L 786.285461 234.170904 L 788.026832 234.21483 L 788.133703 234.221105 L 788.240575 234.221105 L 788.460603 234.22738 L 788.894375 234.23993 L 789.761917 234.258755 L 789.875075 234.26503 L 789.975659 234.26503 L 790.195688 234.271306 L 790.629459 234.283856 L 790.736331 234.283856 L 791.069517 234.296406 L 791.170102 234.296406 L 791.390131 234.302681 L 791.503288 234.302681 " stroke="#ff0000" stroke-width="2.308" stroke-opacity="1" stroke-miterlimit="3.25"/></g><g clip-path="url(#f6de585fc1)"><path stroke-linecap="square" transform="matrix(0.621367, 0, 0, 0.6225, -106.228339, 125.974706)" fill="none" stroke-linejoin="miter" d="M 475.001187 221.4199 L 475.101771 221.388524 L 475.189783 221.357149 L 475.384666 221.294398 L 475.780718 221.168896 L 476.553962 220.924167 L 478.106737 220.422159 L 481.212288 219.380492 L 487.945171 216.970854 L 494.237997 214.54239 L 500.405092 212.007249 L 507.087683 209.114428 L 513.330216 206.309458 L 520.094532 203.203283 L 526.733118 200.115934 L 532.931645 197.235663 L 539.645669 194.167139 L 545.919635 191.368444 L 552.067871 188.714077 L 558.737889 185.953032 L 564.955276 183.499468 L 571.707019 180.983153 L 578.326745 178.661366 L 584.506413 176.634508 L 591.201577 174.576275 L 597.456684 172.781597 L 604.233573 170.974368 L 610.884731 169.336566 L 617.089545 167.912119 L 623.816142 166.487671 L 630.096395 165.251476 L 636.257203 164.128233 L 642.939794 163.00499 L 649.169755 162.03235 L 655.927784 161.059709 L 662.56637 160.181195 L 668.752324 159.415633 L 675.460062 158.662621 L 681.727741 158.003735 L 687.86969 157.407601 L 694.527135 156.811466 L 700.744522 156.296908 L 707.483692 155.78235 L 713.776518 155.336817 L 719.943613 154.935211 L 726.638777 154.533605 L 732.887597 154.188474 L 739.651913 153.837068 L 746.296785 153.523313 L 752.495313 153.253484 L 759.22191 152.983655 L 765.495876 152.751476 L 771.644111 152.538123 L 778.320416 152.331044 L 784.550376 152.142791 L 784.764118 152.142791 L 784.984147 152.130241 L 785.417918 152.123966 L 786.285461 152.098866 L 788.026832 152.048665 L 788.133703 152.048665 L 788.240575 152.04239 L 788.460603 152.036115 L 788.894375 152.02984 L 789.761917 152.004739 L 789.875075 151.998464 L 789.975659 151.998464 L 790.195688 151.992189 L 790.629459 151.979639 L 791.069517 151.967089 L 791.170102 151.967089 L 791.28326 151.960813 L 791.390131 151.960813 L 791.503288 151.954538 " stroke="#ffff00" stroke-width="2.308" stroke-opacity="1" stroke-miterlimit="3.25"/></g><g clip-path="url(#0d12111fe6)"><path stroke-linecap="square" transform="matrix(0.621367, 0, 0, 0.6225, -106.228339, 125.974706)" fill="none" stroke-linejoin="miter" d="M 475.001187 208.323765 L 475.101771 208.235914 L 475.189783 208.154338 L 475.384666 207.978635 L 475.780718 207.633504 L 476.553962 206.924418 L 478.106737 205.47487 L 481.212288 202.406346 L 487.945171 195.001727 L 494.237997 187.189227 L 500.405092 178.774318 L 507.087683 168.978886 L 513.330216 159.434458 L 520.094532 148.95504 L 526.733118 138.852129 L 532.931645 129.85991 L 539.645669 120.81749 L 545.919635 113.199518 L 552.067871 106.579287 L 558.737889 100.354388 L 558.832187 100.272811 L 558.932771 100.18496 L 559.127654 100.021807 L 559.511133 99.695502 L 560.290664 99.049167 L 561.849726 97.787872 L 564.955276 95.428434 L 565.062147 95.346858 L 565.382761 95.120954 L 565.803959 94.819749 L 566.646355 94.223615 L 568.331147 93.087821 L 571.707019 90.960562 L 571.908188 90.83506 L 572.530556 90.471105 L 573.360379 89.994197 L 575.013739 89.071757 L 578.326745 87.36493 L 578.421043 87.321004 L 578.71651 87.176677 L 579.099989 86.994699 L 579.873233 86.630743 L 581.413436 85.927932 L 584.506413 84.628986 L 584.613284 84.58506 L 584.713869 84.54741 L 584.921324 84.459558 L 585.342523 84.296406 L 586.178632 83.976376 L 587.850852 83.361416 L 591.201577 82.225623 L 591.597629 82.100121 L 592.766925 81.736165 L 594.325987 81.271807 L 597.456684 80.418394 L 598.29908 80.20504 L 599.147763 79.991687 L 600.845128 79.596356 L 600.951999 79.571255 L 601.052584 79.53988 L 601.266326 79.495954 L 601.693811 79.401827 L 602.536207 79.213574 L 604.233573 78.862169 L 604.334157 78.837068 L 604.441029 78.818243 L 604.648484 78.774317 L 605.893219 78.529589 L 607.552865 78.215833 L 610.884731 77.651074 L 611.079614 77.619699 L 611.26821 77.588323 L 611.657976 77.531848 L 612.437506 77.412621 L 613.983995 77.186717 L 614.37376 77.123966 L 614.763526 77.06749 L 615.53677 76.967089 L 617.089545 76.76001 L 617.19013 76.74746 L 617.297001 76.73491 L 617.931942 76.653333 L 618.768051 76.552932 L 620.452844 76.358404 L 623.816142 75.994448 L 623.916727 75.981898 L 624.011025 75.975623 L 624.205908 75.956797 L 624.60196 75.919147 L 625.387777 75.843846 L 626.959412 75.699518 L 630.096395 75.435964 L 630.19698 75.423414 L 630.291278 75.417139 L 630.48616 75.404589 L 630.869639 75.373213 L 631.636597 75.316737 L 633.176799 75.203785 L 633.371682 75.18496 L 633.566565 75.178685 L 633.943757 75.147309 L 634.717001 75.097109 L 636.257203 74.996707 L 636.357788 74.990432 L 636.678401 74.971607 L 637.093313 74.946506 L 639.601642 74.795904 L 639.702227 74.795904 L 639.802811 74.783354 L 640.016554 74.770803 L 640.431465 74.751978 L 642.939794 74.620201 L 643.32956 74.607651 L 643.713039 74.588825 L 644.498856 74.5449 L 646.057918 74.475874 L 647.61698 74.413123 L 649.169755 74.350372 L 650.86712 74.287621 L 653.394309 74.193494 L 654.236705 74.168394 L 655.927784 74.118193 L 656.034656 74.111918 L 656.13524 74.111918 L 657.587431 74.067992 L 659.247077 74.024066 L 659.353948 74.017791 L 659.454533 74.017791 L 660.0769 73.998966 L 660.906723 73.980141 L 662.56637 73.936215 L 662.761253 73.936215 L 662.949849 73.92994 L 663.339614 73.923665 L 664.112858 73.90484 L 665.659347 73.873464 L 665.753645 73.867189 L 665.85423 73.867189 L 666.042826 73.860914 L 668.752324 73.810713 L 668.859196 73.810713 L 668.95978 73.804438 L 669.173522 73.798163 L 669.588434 73.791888 L 670.43083 73.779338 L 672.109336 73.747962 L 672.524248 73.747962 L 672.945446 73.735412 L 673.787842 73.722862 L 675.460062 73.697761 L 675.849827 73.697761 L 676.245879 73.685211 L 677.02541 73.672661 L 681.727741 73.616185 L 682.11122 73.616185 L 682.494699 73.60991 L 683.261657 73.603635 L 684.795572 73.584809 L 685.179051 73.584809 L 685.56253 73.578534 L 686.335774 73.572259 L 687.86969 73.553434 L 688.699513 73.553434 L 691.195269 73.528333 L 691.409012 73.528333 L 691.616467 73.522058 L 692.031379 73.522058 L 692.861202 73.515783 L 694.527135 73.503233 L 694.722018 73.503233 L 694.9169 73.496958 L 695.306666 73.496958 L 697.638972 73.484408 L 697.73327 73.478133 L 698.412216 73.478133 L 700.744522 73.465582 L 700.958265 73.465582 L 701.172007 73.459307 L 702.429315 73.459307 L 704.114107 73.446757 L 704.535305 73.446757 L 704.956503 73.440482 L 705.7989 73.440482 L 707.483692 73.434207 L 707.584277 73.427932 L 709.061614 73.427932 L 710.633248 73.415382 L 713.776518 73.409107 L 714.549762 73.409107 L 715.323007 73.402831 L 716.863209 73.396556 L 718.409697 73.396556 L 719.943613 73.390281 L 720.157355 73.390281 L 720.364811 73.384006 L 723.294338 73.384006 L 723.401209 73.377731 L 726.839946 73.377731 L 727.034829 73.371456 L 728.197839 73.371456 L 729.763187 73.365181 L 733.308795 73.365181 L 733.729993 73.358906 L 734.578676 73.358906 L 736.269755 73.352631 L 741.317846 73.352631 L 742.977492 73.346356 L 749.590932 73.346356 L 749.785814 73.34008 L 754.173819 73.34008 L 755.858611 73.333805 L 768.764876 73.333805 L 768.953472 73.32753 L 779.873191 73.32753 L 781.432253 73.321255 L 791.503288 73.321255 " stroke="#ff8000" stroke-width="2.308" stroke-opacity="1" stroke-miterlimit="3.25"/></g><path stroke-linecap="butt" transform="matrix(0.621367, 0, 0, 0.6225, -106.228339, 125.974706)" fill="none" stroke-linejoin="miter" d="M 475.001187 236.354639 L 475.001187 232.457801 " stroke="#666666" stroke-width="0.2" stroke-opacity="1" stroke-miterlimit="3.25"/><path stroke-linecap="butt" transform="matrix(0.621367, 0, 0, 0.6225, -106.228339, 125.974706)" fill="none" stroke-linejoin="miter" d="M 490.824406 236.354639 L 490.824406 234.014026 " stroke="#666666" stroke-width="0.2" stroke-opacity="1" stroke-miterlimit="3.25"/><path stroke-linecap="butt" transform="matrix(0.621367, 0, 0, 0.6225, -106.228339, 125.974706)" fill="none" stroke-linejoin="miter" d="M 506.647625 236.354639 L 506.647625 234.014026 " stroke="#666666" stroke-width="0.2" stroke-opacity="1" stroke-miterlimit="3.25"/><path stroke-linecap="butt" transform="matrix(0.621367, 0, 0, 0.6225, -106.228339, 125.974706)" fill="none" stroke-linejoin="miter" d="M 522.470844 236.354639 L 522.470844 234.014026 " stroke="#666666" stroke-width="0.2" stroke-opacity="1" stroke-miterlimit="3.25"/><path stroke-linecap="butt" transform="matrix(0.621367, 0, 0, 0.6225, -106.228339, 125.974706)" fill="none" stroke-linejoin="miter" d="M 538.30035 236.354639 L 538.30035 234.014026 " stroke="#666666" stroke-width="0.2" stroke-opacity="1" stroke-miterlimit="3.25"/><path stroke-linecap="butt" transform="matrix(0.621367, 0, 0, 0.6225, -106.228339, 125.974706)" fill="none" stroke-linejoin="miter" d="M 554.123569 236.354639 L 554.123569 232.457801 " stroke="#666666" stroke-width="0.2" stroke-opacity="1" stroke-miterlimit="3.25"/><path fill="#000000" d="M 234.925781 279.40625 L 235.5 279.359375 C 235.542969 279.640625 235.644531 279.847656 235.796875 279.988281 C 235.949219 280.128906 236.136719 280.199219 236.355469 280.199219 C 236.617188 280.199219 236.839844 280.101562 237.023438 279.902344 C 237.207031 279.703125 237.296875 279.441406 237.296875 279.113281 C 237.296875 278.800781 237.207031 278.554688 237.035156 278.375 C 236.859375 278.195312 236.628906 278.105469 236.347656 278.105469 C 236.171875 278.105469 236.011719 278.144531 235.871094 278.222656 C 235.730469 278.304688 235.617188 278.410156 235.539062 278.535156 L 235.023438 278.46875 L 235.457031 276.179688 L 237.667969 276.179688 L 237.667969 276.703125 L 235.894531 276.703125 L 235.652344 277.898438 C 235.917969 277.714844 236.199219 277.621094 236.492188 277.621094 C 236.878906 277.621094 237.207031 277.753906 237.476562 278.023438 C 237.742188 278.292969 237.875 278.640625 237.875 279.066406 C 237.875 279.46875 237.757812 279.816406 237.523438 280.109375 C 237.238281 280.46875 236.847656 280.652344 236.355469 280.652344 C 235.949219 280.652344 235.621094 280.539062 235.367188 280.308594 C 235.109375 280.082031 234.964844 279.78125 234.925781 279.40625 Z M 234.925781 279.40625 " fill-opacity="1" fill-rule="nonzero"/><path fill="#000000" d="M 238.382812 278.375 C 238.382812 277.851562 238.4375 277.425781 238.546875 277.105469 C 238.65625 276.785156 238.816406 276.535156 239.027344 276.363281 C 239.242188 276.1875 239.507812 276.101562 239.835938 276.101562 C 240.070312 276.101562 240.28125 276.148438 240.460938 276.246094 C 240.640625 276.339844 240.789062 276.480469 240.90625 276.664062 C 241.023438 276.84375 241.117188 277.0625 241.183594 277.324219 C 241.25 277.585938 241.28125 277.9375 241.28125 278.375 C 241.28125 278.898438 241.230469 279.324219 241.121094 279.644531 C 241.015625 279.964844 240.855469 280.210938 240.640625 280.386719 C 240.429688 280.5625 240.160156 280.652344 239.835938 280.652344 C 239.40625 280.652344 239.066406 280.496094 238.824219 280.1875 C 238.53125 279.820312 238.382812 279.214844 238.382812 278.375 Z M 238.945312 278.375 C 238.945312 279.109375 239.03125 279.59375 239.199219 279.839844 C 239.371094 280.078125 239.582031 280.199219 239.835938 280.199219 C 240.085938 280.199219 240.296875 280.078125 240.464844 279.835938 C 240.636719 279.59375 240.722656 279.105469 240.722656 278.375 C 240.722656 277.640625 240.636719 277.15625 240.464844 276.914062 C 240.296875 276.675781 240.082031 276.554688 239.828125 276.554688 C 239.578125 276.554688 239.375 276.660156 239.226562 276.875 C 239.039062 277.144531 238.945312 277.644531 238.945312 278.375 Z M 238.945312 278.375 " fill-opacity="1" fill-rule="nonzero"/><path stroke-linecap="butt" transform="matrix(0.621367, 0, 0, 0.6225, -106.228339, 125.974706)" fill="none" stroke-linejoin="miter" d="M 569.953075 236.354639 L 569.953075 234.014026 " stroke="#666666" stroke-width="0.2" stroke-opacity="1" stroke-miterlimit="3.25"/><path stroke-linecap="butt" transform="matrix(0.621367, 0, 0, 0.6225, -106.228339, 125.974706)" fill="none" stroke-linejoin="miter" d="M 585.776294 236.354639 L 585.776294 234.014026 " stroke="#666666" stroke-width="0.2" stroke-opacity="1" stroke-miterlimit="3.25"/><path stroke-linecap="butt" transform="matrix(0.621367, 0, 0, 0.6225, -106.228339, 125.974706)" fill="none" stroke-linejoin="miter" d="M 601.599513 236.354639 L 601.599513 234.014026 " stroke="#666666" stroke-width="0.2" stroke-opacity="1" stroke-miterlimit="3.25"/><path stroke-linecap="butt" transform="matrix(0.621367, 0, 0, 0.6225, -106.228339, 125.974706)" fill="none" stroke-linejoin="miter" d="M 617.429018 236.354639 L 617.429018 234.014026 " stroke="#666666" stroke-width="0.2" stroke-opacity="1" stroke-miterlimit="3.25"/><path stroke-linecap="butt" transform="matrix(0.621367, 0, 0, 0.6225, -106.228339, 125.974706)" fill="none" stroke-linejoin="miter" d="M 633.252238 236.354639 L 633.252238 232.457801 " stroke="#666666" stroke-width="0.2" stroke-opacity="1" stroke-miterlimit="3.25"/><path fill="#000000" d="M 284.285156 280.574219 L 283.742188 280.574219 L 283.742188 277.089844 C 283.609375 277.214844 283.4375 277.339844 283.222656 277.464844 C 283.011719 277.589844 282.816406 277.6875 282.648438 277.75 L 282.648438 277.21875 C 282.953125 277.074219 283.222656 276.902344 283.449219 276.695312 C 283.675781 276.492188 283.839844 276.292969 283.933594 276.101562 L 284.285156 276.101562 Z M 284.285156 280.574219 " fill-opacity="1" fill-rule="nonzero"/><path fill="#000000" d="M 285.683594 278.375 C 285.683594 277.851562 285.738281 277.425781 285.847656 277.105469 C 285.957031 276.785156 286.117188 276.535156 286.328125 276.363281 C 286.542969 276.1875 286.808594 276.101562 287.136719 276.101562 C 287.375 276.101562 287.582031 276.148438 287.761719 276.246094 C 287.941406 276.339844 288.09375 276.480469 288.207031 276.664062 C 288.324219 276.84375 288.417969 277.0625 288.484375 277.324219 C 288.554688 277.585938 288.585938 277.9375 288.585938 278.375 C 288.585938 278.898438 288.53125 279.324219 288.425781 279.644531 C 288.316406 279.964844 288.15625 280.210938 287.945312 280.386719 C 287.730469 280.5625 287.460938 280.652344 287.136719 280.652344 C 286.707031 280.652344 286.367188 280.496094 286.125 280.1875 C 285.832031 279.820312 285.683594 279.214844 285.683594 278.375 Z M 286.246094 278.375 C 286.246094 279.109375 286.332031 279.59375 286.503906 279.839844 C 286.675781 280.078125 286.882812 280.199219 287.136719 280.199219 C 287.386719 280.199219 287.597656 280.078125 287.765625 279.835938 C 287.9375 279.59375 288.023438 279.105469 288.023438 278.375 C 288.023438 277.640625 287.9375 277.15625 287.765625 276.914062 C 287.597656 276.675781 287.382812 276.554688 287.128906 276.554688 C 286.878906 276.554688 286.675781 276.660156 286.527344 276.875 C 286.339844 277.144531 286.246094 277.644531 286.246094 278.375 Z M 286.246094 278.375 " fill-opacity="1" fill-rule="nonzero"/><path fill="#000000" d="M 289.140625 278.375 C 289.140625 277.851562 289.195312 277.425781 289.300781 277.105469 C 289.410156 276.785156 289.570312 276.535156 289.785156 276.363281 C 290 276.1875 290.265625 276.101562 290.589844 276.101562 C 290.828125 276.101562 291.039062 276.148438 291.21875 276.246094 C 291.398438 276.339844 291.546875 276.480469 291.664062 276.664062 C 291.78125 276.84375 291.871094 277.0625 291.941406 277.324219 C 292.007812 277.585938 292.039062 277.9375 292.039062 278.375 C 292.039062 278.898438 291.988281 279.324219 291.878906 279.644531 C 291.773438 279.964844 291.613281 280.210938 291.398438 280.386719 C 291.1875 280.5625 290.917969 280.652344 290.589844 280.652344 C 290.160156 280.652344 289.824219 280.496094 289.582031 280.1875 C 289.289062 279.820312 289.140625 279.214844 289.140625 278.375 Z M 289.703125 278.375 C 289.703125 279.109375 289.789062 279.59375 289.957031 279.839844 C 290.128906 280.078125 290.339844 280.199219 290.589844 280.199219 C 290.839844 280.199219 291.050781 280.078125 291.222656 279.835938 C 291.394531 279.59375 291.480469 279.105469 291.480469 278.375 C 291.480469 277.640625 291.394531 277.15625 291.222656 276.914062 C 291.050781 276.675781 290.839844 276.554688 290.582031 276.554688 C 290.332031 276.554688 290.132812 276.660156 289.984375 276.875 C 289.796875 277.144531 289.703125 277.644531 289.703125 278.375 Z M 289.703125 278.375 " fill-opacity="1" fill-rule="nonzero"/><path stroke-linecap="butt" transform="matrix(0.621367, 0, 0, 0.6225, -106.228339, 125.974706)" fill="none" stroke-linejoin="miter" d="M 649.075457 236.354639 L 649.075457 234.014026 " stroke="#666666" stroke-width="0.2" stroke-opacity="1" stroke-miterlimit="3.25"/><path stroke-linecap="butt" transform="matrix(0.621367, 0, 0, 0.6225, -106.228339, 125.974706)" fill="none" stroke-linejoin="miter" d="M 664.898676 236.354639 L 664.898676 234.014026 " stroke="#666666" stroke-width="0.2" stroke-opacity="1" stroke-miterlimit="3.25"/><path stroke-linecap="butt" transform="matrix(0.621367, 0, 0, 0.6225, -106.228339, 125.974706)" fill="none" stroke-linejoin="miter" d="M 680.721895 236.354639 L 680.721895 234.014026 " stroke="#666666" stroke-width="0.2" stroke-opacity="1" stroke-miterlimit="3.25"/><path stroke-linecap="butt" transform="matrix(0.621367, 0, 0, 0.6225, -106.228339, 125.974706)" fill="none" stroke-linejoin="miter" d="M 696.551401 236.354639 L 696.551401 234.014026 " stroke="#666666" stroke-width="0.2" stroke-opacity="1" stroke-miterlimit="3.25"/><path stroke-linecap="butt" transform="matrix(0.621367, 0, 0, 0.6225, -106.228339, 125.974706)" fill="none" stroke-linejoin="miter" d="M 712.37462 236.354639 L 712.37462 232.457801 " stroke="#666666" stroke-width="0.2" stroke-opacity="1" stroke-miterlimit="3.25"/><path fill="#000000" d="M 333.453125 280.574219 L 332.90625 280.574219 L 332.90625 277.089844 C 332.773438 277.214844 332.601562 277.339844 332.390625 277.464844 C 332.175781 277.589844 331.984375 277.6875 331.8125 277.75 L 331.8125 277.21875 C 332.121094 277.074219 332.386719 276.902344 332.613281 276.695312 C 332.84375 276.492188 333.003906 276.292969 333.101562 276.101562 L 333.453125 276.101562 Z M 333.453125 280.574219 " fill-opacity="1" fill-rule="nonzero"/><path fill="#000000" d="M 334.851562 279.40625 L 335.421875 279.359375 C 335.464844 279.640625 335.566406 279.847656 335.71875 279.988281 C 335.875 280.128906 336.0625 280.199219 336.28125 280.199219 C 336.542969 280.199219 336.765625 280.101562 336.945312 279.902344 C 337.128906 279.703125 337.21875 279.441406 337.21875 279.113281 C 337.21875 278.800781 337.132812 278.554688 336.957031 278.375 C 336.78125 278.195312 336.554688 278.105469 336.269531 278.105469 C 336.09375 278.105469 335.933594 278.144531 335.792969 278.222656 C 335.652344 278.304688 335.542969 278.410156 335.460938 278.535156 L 334.945312 278.46875 L 335.378906 276.179688 L 337.589844 276.179688 L 337.589844 276.703125 L 335.816406 276.703125 L 335.574219 277.898438 C 335.84375 277.714844 336.121094 277.621094 336.414062 277.621094 C 336.804688 277.621094 337.132812 277.753906 337.398438 278.023438 C 337.664062 278.292969 337.800781 278.640625 337.800781 279.066406 C 337.800781 279.46875 337.683594 279.816406 337.445312 280.109375 C 337.164062 280.46875 336.773438 280.652344 336.28125 280.652344 C 335.875 280.652344 335.542969 280.539062 335.289062 280.308594 C 335.035156 280.082031 334.886719 279.78125 334.851562 279.40625 Z M 334.851562 279.40625 " fill-opacity="1" fill-rule="nonzero"/><path fill="#000000" d="M 338.304688 278.375 C 338.304688 277.851562 338.359375 277.425781 338.46875 277.105469 C 338.578125 276.785156 338.738281 276.535156 338.949219 276.363281 C 339.164062 276.1875 339.429688 276.101562 339.757812 276.101562 C 339.996094 276.101562 340.203125 276.148438 340.382812 276.246094 C 340.5625 276.339844 340.714844 276.480469 340.828125 276.664062 C 340.945312 276.84375 341.039062 277.0625 341.105469 277.324219 C 341.175781 277.585938 341.207031 277.9375 341.207031 278.375 C 341.207031 278.898438 341.152344 279.324219 341.046875 279.644531 C 340.9375 279.964844 340.777344 280.210938 340.566406 280.386719 C 340.351562 280.5625 340.082031 280.652344 339.757812 280.652344 C 339.328125 280.652344 338.988281 280.496094 338.746094 280.1875 C 338.453125 279.820312 338.304688 279.214844 338.304688 278.375 Z M 338.867188 278.375 C 338.867188 279.109375 338.953125 279.59375 339.125 279.839844 C 339.296875 280.078125 339.503906 280.199219 339.757812 280.199219 C 340.007812 280.199219 340.21875 280.078125 340.386719 279.835938 C 340.558594 279.59375 340.644531 279.105469 340.644531 278.375 C 340.644531 277.640625 340.558594 277.15625 340.386719 276.914062 C 340.21875 276.675781 340.003906 276.554688 339.75 276.554688 C 339.5 276.554688 339.296875 276.660156 339.148438 276.875 C 338.960938 277.144531 338.867188 277.644531 338.867188 278.375 Z M 338.867188 278.375 " fill-opacity="1" fill-rule="nonzero"/><path stroke-linecap="butt" transform="matrix(0.621367, 0, 0, 0.6225, -106.228339, 125.974706)" fill="none" stroke-linejoin="miter" d="M 728.197839 236.354639 L 728.197839 234.014026 " stroke="#666666" stroke-width="0.2" stroke-opacity="1" stroke-miterlimit="3.25"/><path stroke-linecap="butt" transform="matrix(0.621367, 0, 0, 0.6225, -106.228339, 125.974706)" fill="none" stroke-linejoin="miter" d="M 744.027344 236.354639 L 744.027344 234.014026 " stroke="#666666" stroke-width="0.2" stroke-opacity="1" stroke-miterlimit="3.25"/><path stroke-linecap="butt" transform="matrix(0.621367, 0, 0, 0.6225, -106.228339, 125.974706)" fill="none" stroke-linejoin="miter" d="M 759.850564 236.354639 L 759.850564 234.014026 " stroke="#666666" stroke-width="0.2" stroke-opacity="1" stroke-miterlimit="3.25"/><path stroke-linecap="butt" transform="matrix(0.621367, 0, 0, 0.6225, -106.228339, 125.974706)" fill="none" stroke-linejoin="miter" d="M 775.673783 236.354639 L 775.673783 234.014026 " stroke="#666666" stroke-width="0.2" stroke-opacity="1" stroke-miterlimit="3.25"/><path stroke-linecap="butt" transform="matrix(0.621367, 0, 0, 0.6225, -106.228339, 125.974706)" fill="none" stroke-linejoin="miter" d="M 791.503288 236.354639 L 791.503288 232.457801 " stroke="#666666" stroke-width="0.2" stroke-opacity="1" stroke-miterlimit="3.25"/><path fill="#000000" d="M 383.429688 280.050781 L 383.429688 280.574219 L 380.492188 280.574219 C 380.488281 280.445312 380.507812 280.316406 380.554688 280.195312 C 380.628906 279.992188 380.75 279.796875 380.914062 279.601562 C 381.078125 279.40625 381.316406 279.183594 381.628906 278.925781 C 382.109375 278.53125 382.4375 278.214844 382.609375 277.984375 C 382.777344 277.75 382.863281 277.53125 382.863281 277.328125 C 382.863281 277.109375 382.785156 276.925781 382.628906 276.777344 C 382.476562 276.628906 382.273438 276.554688 382.027344 276.554688 C 381.761719 276.554688 381.550781 276.632812 381.394531 276.792969 C 381.238281 276.949219 381.15625 277.167969 381.152344 277.449219 L 380.59375 277.390625 C 380.632812 276.972656 380.777344 276.652344 381.027344 276.429688 C 381.277344 276.210938 381.617188 276.101562 382.039062 276.101562 C 382.464844 276.101562 382.800781 276.21875 383.050781 276.457031 C 383.300781 276.695312 383.421875 276.988281 383.421875 277.339844 C 383.421875 277.515625 383.386719 277.691406 383.316406 277.863281 C 383.242188 278.035156 383.121094 278.214844 382.953125 278.410156 C 382.78125 278.597656 382.503906 278.859375 382.109375 279.191406 C 381.78125 279.464844 381.570312 279.652344 381.480469 279.753906 C 381.386719 279.851562 381.308594 279.949219 381.25 280.050781 Z M 383.429688 280.050781 " fill-opacity="1" fill-rule="nonzero"/><path fill="#000000" d="M 384.015625 278.375 C 384.015625 277.851562 384.070312 277.425781 384.179688 277.105469 C 384.289062 276.785156 384.449219 276.535156 384.660156 276.363281 C 384.875 276.1875 385.140625 276.101562 385.46875 276.101562 C 385.703125 276.101562 385.914062 276.148438 386.09375 276.246094 C 386.273438 276.339844 386.421875 276.480469 386.539062 276.664062 C 386.65625 276.84375 386.75 277.0625 386.816406 277.324219 C 386.882812 277.585938 386.917969 277.9375 386.917969 278.375 C 386.917969 278.898438 386.863281 279.324219 386.757812 279.644531 C 386.648438 279.964844 386.488281 280.210938 386.273438 280.386719 C 386.0625 280.5625 385.792969 280.652344 385.46875 280.652344 C 385.039062 280.652344 384.699219 280.496094 384.457031 280.1875 C 384.164062 279.820312 384.015625 279.214844 384.015625 278.375 Z M 384.578125 278.375 C 384.578125 279.109375 384.664062 279.59375 384.832031 279.839844 C 385.007812 280.078125 385.214844 280.199219 385.46875 280.199219 C 385.71875 280.199219 385.929688 280.078125 386.097656 279.835938 C 386.269531 279.59375 386.355469 279.105469 386.355469 278.375 C 386.355469 277.640625 386.269531 277.15625 386.097656 276.914062 C 385.929688 276.675781 385.714844 276.554688 385.460938 276.554688 C 385.210938 276.554688 385.007812 276.660156 384.859375 276.875 C 384.671875 277.144531 384.578125 277.644531 384.578125 278.375 Z M 384.578125 278.375 " fill-opacity="1" fill-rule="nonzero"/><path fill="#000000" d="M 387.472656 278.375 C 387.472656 277.851562 387.527344 277.425781 387.632812 277.105469 C 387.742188 276.785156 387.902344 276.535156 388.117188 276.363281 C 388.332031 276.1875 388.597656 276.101562 388.921875 276.101562 C 389.160156 276.101562 389.371094 276.148438 389.546875 276.246094 C 389.726562 276.339844 389.878906 276.480469 389.996094 276.664062 C 390.113281 276.84375 390.203125 277.0625 390.273438 277.324219 C 390.339844 277.585938 390.371094 277.9375 390.371094 278.375 C 390.371094 278.898438 390.316406 279.324219 390.210938 279.644531 C 390.105469 279.964844 389.945312 280.210938 389.730469 280.386719 C 389.515625 280.5625 389.246094 280.652344 388.921875 280.652344 C 388.492188 280.652344 388.15625 280.496094 387.914062 280.1875 C 387.617188 279.820312 387.472656 279.214844 387.472656 278.375 Z M 388.035156 278.375 C 388.035156 279.109375 388.121094 279.59375 388.289062 279.839844 C 388.460938 280.078125 388.671875 280.199219 388.921875 280.199219 C 389.171875 280.199219 389.382812 280.078125 389.554688 279.835938 C 389.726562 279.59375 389.8125 279.105469 389.8125 278.375 C 389.8125 277.640625 389.726562 277.15625 389.554688 276.914062 C 389.382812 276.675781 389.171875 276.554688 388.914062 276.554688 C 388.664062 276.554688 388.464844 276.660156 388.316406 276.875 C 388.125 277.144531 388.035156 277.644531 388.035156 278.375 Z M 388.035156 278.375 " fill-opacity="1" fill-rule="nonzero"/><path stroke-linecap="butt" transform="matrix(0.621367, 0, 0, 0.6225, -106.228339, 125.974706)" fill="none" stroke-linejoin="miter" d="M 468.406607 236.354639 L 798.097868 236.354639 " stroke="#666666" stroke-width="0.2" stroke-opacity="1" stroke-miterlimit="3.25"/><path stroke-linecap="butt" transform="matrix(0.621367, 0, 0, 0.6225, -106.228339, 125.974706)" fill="none" stroke-linejoin="miter" d="M 475.001187 245.691988 L 477.339779 245.691988 " stroke="#666666" stroke-width="0.2" stroke-opacity="1" stroke-miterlimit="3.25"/><path stroke-linecap="butt" transform="matrix(0.621367, 0, 0, 0.6225, -106.228339, 125.974706)" fill="none" stroke-linejoin="miter" d="M 475.001187 236.354639 L 478.898841 236.354639 " stroke="#666666" stroke-width="0.2" stroke-opacity="1" stroke-miterlimit="3.25"/><path stroke-linecap="butt" transform="matrix(0.621367, 0, 0, 0.6225, -106.228339, 125.974706)" fill="none" stroke-linejoin="miter" d="M 475.001187 227.017289 L 477.339779 227.017289 " stroke="#666666" stroke-width="0.2" stroke-opacity="1" stroke-miterlimit="3.25"/><path stroke-linecap="butt" transform="matrix(0.621367, 0, 0, 0.6225, -106.228339, 125.974706)" fill="none" stroke-linejoin="miter" d="M 475.001187 217.686215 L 477.339779 217.686215 " stroke="#666666" stroke-width="0.2" stroke-opacity="1" stroke-miterlimit="3.25"/><path stroke-linecap="butt" transform="matrix(0.621367, 0, 0, 0.6225, -106.228339, 125.974706)" fill="none" stroke-linejoin="miter" d="M 475.001187 208.348866 L 477.339779 208.348866 " stroke="#666666" stroke-width="0.2" stroke-opacity="1" stroke-miterlimit="3.25"/><path stroke-linecap="butt" transform="matrix(0.621367, 0, 0, 0.6225, -106.228339, 125.974706)" fill="none" stroke-linejoin="miter" d="M 475.001187 199.011516 L 477.339779 199.011516 " stroke="#666666" stroke-width="0.2" stroke-opacity="1" stroke-miterlimit="3.25"/><path stroke-linecap="butt" transform="matrix(0.621367, 0, 0, 0.6225, -106.228339, 125.974706)" fill="none" stroke-linejoin="miter" d="M 475.001187 189.674167 L 478.898841 189.674167 " stroke="#666666" stroke-width="0.2" stroke-opacity="1" stroke-miterlimit="3.25"/><path fill="#000000" d="M 170.109375 247.160156 L 169.5625 247.160156 L 169.5625 243.671875 C 169.433594 243.796875 169.261719 243.925781 169.046875 244.050781 C 168.832031 244.175781 168.640625 244.269531 168.472656 244.332031 L 168.472656 243.804688 C 168.777344 243.660156 169.042969 243.484375 169.273438 243.28125 C 169.5 243.078125 169.664062 242.878906 169.757812 242.683594 L 170.109375 242.683594 Z M 170.109375 247.160156 " fill-opacity="1" fill-rule="nonzero"/><path fill="#000000" d="M 175.28125 246.492188 L 174.914062 246.863281 L 173.960938 245.90625 L 173.003906 246.863281 L 172.632812 246.496094 L 173.589844 245.542969 L 172.640625 244.585938 L 173.007812 244.214844 L 173.964844 245.171875 L 174.914062 244.21875 L 175.273438 244.585938 L 174.332031 245.539062 Z M 175.28125 246.492188 " fill-opacity="1" fill-rule="nonzero"/><path fill="#000000" d="M 178.808594 247.160156 L 178.261719 247.160156 L 178.261719 243.671875 C 178.132812 243.796875 177.960938 243.925781 177.746094 244.050781 C 177.53125 244.175781 177.339844 244.269531 177.171875 244.332031 L 177.171875 243.804688 C 177.476562 243.660156 177.742188 243.484375 177.972656 243.28125 C 178.199219 243.078125 178.363281 242.878906 178.457031 242.683594 L 178.808594 242.683594 Z M 178.808594 247.160156 " fill-opacity="1" fill-rule="nonzero"/><path fill="#000000" d="M 180.207031 244.960938 C 180.207031 244.4375 180.261719 244.011719 180.371094 243.6875 C 180.480469 243.367188 180.640625 243.121094 180.851562 242.949219 C 181.066406 242.773438 181.332031 242.683594 181.660156 242.683594 C 181.894531 242.683594 182.105469 242.734375 182.285156 242.828125 C 182.464844 242.925781 182.613281 243.0625 182.730469 243.246094 C 182.847656 243.425781 182.941406 243.648438 183.007812 243.90625 C 183.074219 244.167969 183.109375 244.519531 183.109375 244.960938 C 183.109375 245.484375 183.054688 245.90625 182.949219 246.226562 C 182.839844 246.550781 182.679688 246.796875 182.46875 246.972656 C 182.253906 247.148438 181.984375 247.234375 181.660156 247.234375 C 181.230469 247.234375 180.890625 247.082031 180.648438 246.773438 C 180.355469 246.402344 180.207031 245.796875 180.207031 244.960938 Z M 180.769531 244.960938 C 180.769531 245.691406 180.855469 246.179688 181.023438 246.421875 C 181.199219 246.664062 181.40625 246.785156 181.660156 246.785156 C 181.910156 246.785156 182.121094 246.664062 182.289062 246.421875 C 182.460938 246.175781 182.546875 245.691406 182.546875 244.960938 C 182.546875 244.226562 182.460938 243.742188 182.289062 243.5 C 182.121094 243.257812 181.90625 243.136719 181.652344 243.136719 C 181.402344 243.136719 181.199219 243.246094 181.050781 243.457031 C 180.863281 243.726562 180.769531 244.230469 180.769531 244.960938 Z M 180.769531 244.960938 " fill-opacity="1" fill-rule="nonzero"/><path fill="#000000" d="M 186.109375 241.550781 L 185.621094 241.585938 C 185.578125 241.394531 185.519531 241.253906 185.4375 241.164062 C 185.304688 241.023438 185.140625 240.953125 184.945312 240.953125 C 184.789062 240.953125 184.652344 240.996094 184.53125 241.085938 C 184.378906 241.199219 184.257812 241.363281 184.167969 241.582031 C 184.078125 241.796875 184.03125 242.105469 184.027344 242.511719 C 184.148438 242.328125 184.289062 242.195312 184.460938 242.105469 C 184.632812 242.019531 184.8125 241.976562 185 241.976562 C 185.328125 241.976562 185.605469 242.097656 185.835938 242.335938 C 186.066406 242.578125 186.183594 242.890625 186.183594 243.273438 C 186.183594 243.527344 186.128906 243.761719 186.019531 243.976562 C 185.910156 244.191406 185.761719 244.359375 185.574219 244.472656 C 185.382812 244.585938 185.167969 244.644531 184.929688 244.644531 C 184.519531 244.644531 184.1875 244.496094 183.925781 244.191406 C 183.667969 243.890625 183.539062 243.394531 183.539062 242.699219 C 183.539062 241.925781 183.683594 241.363281 183.96875 241.011719 C 184.21875 240.703125 184.550781 240.550781 184.972656 240.550781 C 185.289062 240.550781 185.546875 240.636719 185.75 240.816406 C 185.949219 240.992188 186.070312 241.234375 186.109375 241.550781 Z M 184.105469 243.277344 C 184.105469 243.449219 184.140625 243.609375 184.210938 243.765625 C 184.285156 243.921875 184.382812 244.039062 184.511719 244.121094 C 184.640625 244.199219 184.777344 244.242188 184.921875 244.242188 C 185.128906 244.242188 185.308594 244.15625 185.457031 243.988281 C 185.605469 243.820312 185.679688 243.59375 185.679688 243.304688 C 185.679688 243.027344 185.605469 242.808594 185.460938 242.648438 C 185.3125 242.492188 185.125 242.410156 184.902344 242.410156 C 184.679688 242.410156 184.492188 242.492188 184.335938 242.648438 C 184.179688 242.808594 184.105469 243.019531 184.105469 243.277344 Z M 184.105469 243.277344 " fill-opacity="1" fill-rule="nonzero"/><path stroke-linecap="butt" transform="matrix(0.621367, 0, 0, 0.6225, -106.228339, 125.974706)" fill="none" stroke-linejoin="miter" d="M 475.001187 180.336818 L 477.339779 180.336818 " stroke="#666666" stroke-width="0.2" stroke-opacity="1" stroke-miterlimit="3.25"/><path stroke-linecap="butt" transform="matrix(0.621367, 0, 0, 0.6225, -106.228339, 125.974706)" fill="none" stroke-linejoin="miter" d="M 475.001187 171.005743 L 477.339779 171.005743 " stroke="#666666" stroke-width="0.2" stroke-opacity="1" stroke-miterlimit="3.25"/><path stroke-linecap="butt" transform="matrix(0.621367, 0, 0, 0.6225, -106.228339, 125.974706)" fill="none" stroke-linejoin="miter" d="M 475.001187 161.668394 L 477.339779 161.668394 " stroke="#666666" stroke-width="0.2" stroke-opacity="1" stroke-miterlimit="3.25"/><path stroke-linecap="butt" transform="matrix(0.621367, 0, 0, 0.6225, -106.228339, 125.974706)" fill="none" stroke-linejoin="miter" d="M 475.001187 152.331044 L 477.339779 152.331044 " stroke="#666666" stroke-width="0.2" stroke-opacity="1" stroke-miterlimit="3.25"/><path stroke-linecap="butt" transform="matrix(0.621367, 0, 0, 0.6225, -106.228339, 125.974706)" fill="none" stroke-linejoin="miter" d="M 475.001187 142.993695 L 478.898841 142.993695 " stroke="#666666" stroke-width="0.2" stroke-opacity="1" stroke-miterlimit="3.25"/><g clip-path="url(#c2df63baad)"><path fill="#000000" d="M 170.921875 217.574219 L 170.921875 218.101562 L 167.984375 218.101562 C 167.980469 217.96875 168 217.84375 168.046875 217.722656 C 168.121094 217.519531 168.242188 217.324219 168.40625 217.128906 C 168.570312 216.933594 168.808594 216.710938 169.121094 216.453125 C 169.601562 216.054688 169.929688 215.742188 170.101562 215.507812 C 170.269531 215.277344 170.355469 215.058594 170.355469 214.851562 C 170.355469 214.636719 170.277344 214.449219 170.121094 214.304688 C 169.96875 214.15625 169.765625 214.078125 169.519531 214.078125 C 169.253906 214.078125 169.042969 214.160156 168.886719 214.316406 C 168.730469 214.476562 168.648438 214.695312 168.648438 214.972656 L 168.085938 214.914062 C 168.125 214.496094 168.269531 214.175781 168.519531 213.957031 C 168.769531 213.734375 169.109375 213.625 169.53125 213.625 C 169.957031 213.625 170.292969 213.746094 170.542969 213.980469 C 170.792969 214.21875 170.917969 214.515625 170.917969 214.863281 C 170.917969 215.042969 170.878906 215.21875 170.808594 215.390625 C 170.734375 215.5625 170.613281 215.742188 170.445312 215.933594 C 170.273438 216.125 169.996094 216.386719 169.601562 216.71875 C 169.273438 216.992188 169.0625 217.179688 168.972656 217.277344 C 168.878906 217.375 168.800781 217.476562 168.742188 217.574219 Z M 170.921875 217.574219 " fill-opacity="1" fill-rule="nonzero"/></g><path fill="#000000" d="M 175.28125 217.433594 L 174.914062 217.808594 L 173.960938 216.847656 L 173.003906 217.808594 L 172.632812 217.441406 L 173.589844 216.488281 L 172.640625 215.527344 L 173.007812 215.15625 L 173.964844 216.113281 L 174.914062 215.160156 L 175.273438 215.527344 L 174.332031 216.480469 Z M 175.28125 217.433594 " fill-opacity="1" fill-rule="nonzero"/><path fill="#000000" d="M 178.808594 218.101562 L 178.261719 218.101562 L 178.261719 214.613281 C 178.132812 214.742188 177.960938 214.867188 177.746094 214.992188 C 177.53125 215.117188 177.339844 215.210938 177.171875 215.277344 L 177.171875 214.746094 C 177.476562 214.601562 177.742188 214.425781 177.972656 214.222656 C 178.199219 214.019531 178.363281 213.820312 178.457031 213.625 L 178.808594 213.625 Z M 178.808594 218.101562 " fill-opacity="1" fill-rule="nonzero"/><path fill="#000000" d="M 180.207031 215.902344 C 180.207031 215.378906 180.261719 214.953125 180.371094 214.632812 C 180.480469 214.308594 180.640625 214.0625 180.851562 213.890625 C 181.066406 213.714844 181.332031 213.625 181.660156 213.625 C 181.894531 213.625 182.105469 213.675781 182.285156 213.769531 C 182.464844 213.867188 182.613281 214.007812 182.730469 214.1875 C 182.847656 214.367188 182.941406 214.589844 183.007812 214.851562 C 183.074219 215.109375 183.109375 215.460938 183.109375 215.902344 C 183.109375 216.425781 183.054688 216.847656 182.949219 217.167969 C 182.839844 217.492188 182.679688 217.738281 182.46875 217.914062 C 182.253906 218.089844 181.984375 218.175781 181.660156 218.175781 C 181.230469 218.175781 180.890625 218.023438 180.648438 217.714844 C 180.355469 217.34375 180.207031 216.738281 180.207031 215.902344 Z M 180.769531 215.902344 C 180.769531 216.632812 180.855469 217.121094 181.023438 217.363281 C 181.199219 217.605469 181.40625 217.726562 181.660156 217.726562 C 181.910156 217.726562 182.121094 217.605469 182.289062 217.363281 C 182.460938 217.117188 182.546875 216.632812 182.546875 215.902344 C 182.546875 215.167969 182.460938 214.683594 182.289062 214.441406 C 182.121094 214.199219 181.90625 214.078125 181.652344 214.078125 C 181.402344 214.078125 181.199219 214.1875 181.050781 214.398438 C 180.863281 214.671875 180.769531 215.171875 180.769531 215.902344 Z M 180.769531 215.902344 " fill-opacity="1" fill-rule="nonzero"/><path fill="#000000" d="M 186.109375 212.492188 L 185.621094 212.527344 C 185.578125 212.335938 185.519531 212.195312 185.4375 212.105469 C 185.304688 211.964844 185.140625 211.894531 184.945312 211.894531 C 184.789062 211.894531 184.652344 211.941406 184.53125 212.027344 C 184.378906 212.140625 184.257812 212.308594 184.167969 212.523438 C 184.078125 212.738281 184.03125 213.046875 184.027344 213.453125 C 184.148438 213.269531 184.289062 213.136719 184.460938 213.046875 C 184.632812 212.960938 184.8125 212.917969 185 212.917969 C 185.328125 212.917969 185.605469 213.039062 185.835938 213.28125 C 186.066406 213.519531 186.183594 213.832031 186.183594 214.214844 C 186.183594 214.46875 186.128906 214.703125 186.019531 214.917969 C 185.910156 215.132812 185.761719 215.300781 185.574219 215.414062 C 185.382812 215.527344 185.167969 215.585938 184.929688 215.585938 C 184.519531 215.585938 184.1875 215.4375 183.925781 215.132812 C 183.667969 214.832031 183.539062 214.335938 183.539062 213.640625 C 183.539062 212.867188 183.683594 212.304688 183.96875 211.953125 C 184.21875 211.644531 184.550781 211.492188 184.972656 211.492188 C 185.289062 211.492188 185.546875 211.578125 185.75 211.757812 C 185.949219 211.933594 186.070312 212.179688 186.109375 212.492188 Z M 184.105469 214.21875 C 184.105469 214.390625 184.140625 214.550781 184.210938 214.707031 C 184.285156 214.863281 184.382812 214.980469 184.511719 215.0625 C 184.640625 215.140625 184.777344 215.183594 184.921875 215.183594 C 185.128906 215.183594 185.308594 215.097656 185.457031 214.929688 C 185.605469 214.761719 185.679688 214.535156 185.679688 214.246094 C 185.679688 213.96875 185.605469 213.75 185.460938 213.589844 C 185.3125 213.433594 185.125 213.351562 184.902344 213.351562 C 184.679688 213.351562 184.492188 213.433594 184.335938 213.589844 C 184.179688 213.75 184.105469 213.960938 184.105469 214.21875 Z M 184.105469 214.21875 " fill-opacity="1" fill-rule="nonzero"/><path stroke-linecap="butt" transform="matrix(0.621367, 0, 0, 0.6225, -106.228339, 125.974706)" fill="none" stroke-linejoin="miter" d="M 475.001187 133.656346 L 477.339779 133.656346 " stroke="#666666" stroke-width="0.2" stroke-opacity="1" stroke-miterlimit="3.25"/><path stroke-linecap="butt" transform="matrix(0.621367, 0, 0, 0.6225, -106.228339, 125.974706)" fill="none" stroke-linejoin="miter" d="M 475.001187 124.318996 L 477.339779 124.318996 " stroke="#666666" stroke-width="0.2" stroke-opacity="1" stroke-miterlimit="3.25"/><path stroke-linecap="butt" transform="matrix(0.621367, 0, 0, 0.6225, -106.228339, 125.974706)" fill="none" stroke-linejoin="miter" d="M 475.001187 114.981647 L 477.339779 114.981647 " stroke="#666666" stroke-width="0.2" stroke-opacity="1" stroke-miterlimit="3.25"/><path stroke-linecap="butt" transform="matrix(0.621367, 0, 0, 0.6225, -106.228339, 125.974706)" fill="none" stroke-linejoin="miter" d="M 475.001187 105.650572 L 477.339779 105.650572 " stroke="#666666" stroke-width="0.2" stroke-opacity="1" stroke-miterlimit="3.25"/><path stroke-linecap="butt" transform="matrix(0.621367, 0, 0, 0.6225, -106.228339, 125.974706)" fill="none" stroke-linejoin="miter" d="M 475.001187 96.313223 L 478.898841 96.313223 " stroke="#666666" stroke-width="0.2" stroke-opacity="1" stroke-miterlimit="3.25"/><g clip-path="url(#87081c7add)"><path fill="#000000" d="M 168.058594 187.867188 L 168.601562 187.792969 C 168.664062 188.105469 168.769531 188.328125 168.921875 188.464844 C 169.070312 188.601562 169.253906 188.667969 169.472656 188.667969 C 169.730469 188.667969 169.945312 188.582031 170.121094 188.402344 C 170.300781 188.222656 170.390625 188 170.390625 187.738281 C 170.390625 187.488281 170.308594 187.28125 170.144531 187.117188 C 169.980469 186.953125 169.769531 186.875 169.519531 186.875 C 169.417969 186.875 169.289062 186.894531 169.132812 186.933594 L 169.191406 186.453125 C 169.230469 186.457031 169.257812 186.460938 169.28125 186.460938 C 169.511719 186.460938 169.722656 186.398438 169.910156 186.277344 C 170.09375 186.152344 170.1875 185.964844 170.1875 185.714844 C 170.1875 185.515625 170.121094 185.347656 169.984375 185.214844 C 169.847656 185.082031 169.675781 185.019531 169.460938 185.019531 C 169.25 185.019531 169.070312 185.082031 168.929688 185.21875 C 168.789062 185.355469 168.699219 185.554688 168.65625 185.820312 L 168.109375 185.722656 C 168.179688 185.355469 168.328125 185.070312 168.566406 184.871094 C 168.800781 184.667969 169.09375 184.570312 169.449219 184.570312 C 169.691406 184.570312 169.914062 184.621094 170.121094 184.722656 C 170.324219 184.828125 170.480469 184.972656 170.589844 185.152344 C 170.695312 185.332031 170.75 185.523438 170.75 185.726562 C 170.75 185.917969 170.699219 186.09375 170.59375 186.25 C 170.492188 186.410156 170.339844 186.535156 170.136719 186.628906 C 170.398438 186.691406 170.605469 186.816406 170.75 187.007812 C 170.898438 187.199219 170.96875 187.4375 170.96875 187.726562 C 170.96875 188.117188 170.828125 188.445312 170.542969 188.71875 C 170.261719 188.988281 169.902344 189.121094 169.46875 189.121094 C 169.078125 189.121094 168.753906 189.007812 168.496094 188.773438 C 168.238281 188.539062 168.089844 188.238281 168.058594 187.867188 Z M 168.058594 187.867188 " fill-opacity="1" fill-rule="nonzero"/></g><path fill="#000000" d="M 175.28125 188.375 L 174.914062 188.75 L 173.960938 187.789062 L 173.003906 188.75 L 172.632812 188.382812 L 173.589844 187.429688 L 172.640625 186.46875 L 173.007812 186.097656 L 173.964844 187.054688 L 174.914062 186.101562 L 175.273438 186.46875 L 174.332031 187.421875 Z M 175.28125 188.375 " fill-opacity="1" fill-rule="nonzero"/><path fill="#000000" d="M 178.808594 189.042969 L 178.261719 189.042969 L 178.261719 185.554688 C 178.132812 185.683594 177.960938 185.808594 177.746094 185.933594 C 177.53125 186.058594 177.339844 186.152344 177.171875 186.21875 L 177.171875 185.6875 C 177.476562 185.542969 177.742188 185.367188 177.972656 185.164062 C 178.199219 184.960938 178.363281 184.761719 178.457031 184.570312 L 178.808594 184.570312 Z M 178.808594 189.042969 " fill-opacity="1" fill-rule="nonzero"/><path fill="#000000" d="M 180.207031 186.84375 C 180.207031 186.320312 180.261719 185.894531 180.371094 185.574219 C 180.480469 185.25 180.640625 185.003906 180.851562 184.832031 C 181.066406 184.65625 181.332031 184.570312 181.660156 184.570312 C 181.894531 184.570312 182.105469 184.617188 182.285156 184.710938 C 182.464844 184.808594 182.613281 184.949219 182.730469 185.128906 C 182.847656 185.308594 182.941406 185.53125 183.007812 185.792969 C 183.074219 186.050781 183.109375 186.40625 183.109375 186.84375 C 183.109375 187.367188 183.054688 187.789062 182.949219 188.113281 C 182.839844 188.433594 182.679688 188.679688 182.46875 188.855469 C 182.253906 189.03125 181.984375 189.117188 181.660156 189.117188 C 181.230469 189.117188 180.890625 188.964844 180.648438 188.65625 C 180.355469 188.285156 180.207031 187.679688 180.207031 186.84375 Z M 180.769531 186.84375 C 180.769531 187.578125 180.855469 188.0625 181.023438 188.304688 C 181.199219 188.546875 181.40625 188.667969 181.660156 188.667969 C 181.910156 188.667969 182.121094 188.546875 182.289062 188.304688 C 182.460938 188.058594 182.546875 187.574219 182.546875 186.84375 C 182.546875 186.109375 182.460938 185.625 182.289062 185.382812 C 182.121094 185.140625 181.90625 185.019531 181.652344 185.019531 C 181.402344 185.019531 181.199219 185.128906 181.050781 185.339844 C 180.863281 185.613281 180.769531 186.113281 180.769531 186.84375 Z M 180.769531 186.84375 " fill-opacity="1" fill-rule="nonzero"/><path fill="#000000" d="M 186.109375 183.433594 L 185.621094 183.46875 C 185.578125 183.277344 185.519531 183.136719 185.4375 183.050781 C 185.304688 182.90625 185.140625 182.835938 184.945312 182.835938 C 184.789062 182.835938 184.652344 182.882812 184.53125 182.96875 C 184.378906 183.082031 184.257812 183.25 184.167969 183.464844 C 184.078125 183.679688 184.03125 183.988281 184.027344 184.394531 C 184.148438 184.210938 184.289062 184.078125 184.460938 183.988281 C 184.632812 183.902344 184.8125 183.859375 185 183.859375 C 185.328125 183.859375 185.605469 183.980469 185.835938 184.222656 C 186.066406 184.460938 186.183594 184.777344 186.183594 185.15625 C 186.183594 185.410156 186.128906 185.644531 186.019531 185.859375 C 185.910156 186.078125 185.761719 186.242188 185.574219 186.355469 C 185.382812 186.46875 185.167969 186.527344 184.929688 186.527344 C 184.519531 186.527344 184.1875 186.378906 183.925781 186.078125 C 183.667969 185.773438 183.539062 185.277344 183.539062 184.582031 C 183.539062 183.808594 183.683594 183.246094 183.96875 182.894531 C 184.21875 182.585938 184.550781 182.433594 184.972656 182.433594 C 185.289062 182.433594 185.546875 182.519531 185.75 182.699219 C 185.949219 182.875 186.070312 183.121094 186.109375 183.433594 Z M 184.105469 185.160156 C 184.105469 185.332031 184.140625 185.492188 184.210938 185.648438 C 184.285156 185.804688 184.382812 185.921875 184.511719 186.003906 C 184.640625 186.082031 184.777344 186.125 184.921875 186.125 C 185.128906 186.125 185.308594 186.039062 185.457031 185.871094 C 185.605469 185.703125 185.679688 185.476562 185.679688 185.1875 C 185.679688 184.910156 185.605469 184.691406 185.460938 184.53125 C 185.3125 184.375 185.125 184.292969 184.902344 184.292969 C 184.679688 184.292969 184.492188 184.375 184.335938 184.53125 C 184.179688 184.691406 184.105469 184.902344 184.105469 185.160156 Z M 184.105469 185.160156 " fill-opacity="1" fill-rule="nonzero"/><path stroke-linecap="butt" transform="matrix(0.621367, 0, 0, 0.6225, -106.228339, 125.974706)" fill="none" stroke-linejoin="miter" d="M 475.001187 86.975874 L 477.339779 86.975874 " stroke="#666666" stroke-width="0.2" stroke-opacity="1" stroke-miterlimit="3.25"/><path stroke-linecap="butt" transform="matrix(0.621367, 0, 0, 0.6225, -106.228339, 125.974706)" fill="none" stroke-linejoin="miter" d="M 475.001187 77.638524 L 477.339779 77.638524 " stroke="#666666" stroke-width="0.2" stroke-opacity="1" stroke-miterlimit="3.25"/><path stroke-linecap="butt" transform="matrix(0.621367, 0, 0, 0.6225, -106.228339, 125.974706)" fill="none" stroke-linejoin="miter" d="M 475.001187 68.30745 L 477.339779 68.30745 " stroke="#666666" stroke-width="0.2" stroke-opacity="1" stroke-miterlimit="3.25"/><path stroke-linecap="butt" transform="matrix(0.621367, 0, 0, 0.6225, -106.228339, 125.974706)" fill="none" stroke-linejoin="miter" d="M 475.001187 58.970101 L 477.339779 58.970101 " stroke="#666666" stroke-width="0.2" stroke-opacity="1" stroke-miterlimit="3.25"/><path stroke-linecap="butt" transform="matrix(0.621367, 0, 0, 0.6225, -106.228339, 125.974706)" fill="none" stroke-linejoin="miter" d="M 475.001187 49.632751 L 478.898841 49.632751 " stroke="#666666" stroke-width="0.2" stroke-opacity="1" stroke-miterlimit="3.25"/><g clip-path="url(#aedb6ecba4)"><path fill="#000000" d="M 169.804688 159.984375 L 169.804688 158.917969 L 167.871094 158.917969 L 167.871094 158.414062 L 169.902344 155.53125 L 170.347656 155.53125 L 170.347656 158.414062 L 170.949219 158.414062 L 170.949219 158.917969 L 170.347656 158.917969 L 170.347656 159.984375 Z M 169.804688 158.414062 L 169.804688 156.40625 L 168.410156 158.414062 Z M 169.804688 158.414062 " fill-opacity="1" fill-rule="nonzero"/></g><path fill="#000000" d="M 175.28125 159.316406 L 174.914062 159.691406 L 173.960938 158.730469 L 173.003906 159.691406 L 172.632812 159.324219 L 173.589844 158.371094 L 172.640625 157.410156 L 173.007812 157.039062 L 173.964844 157.996094 L 174.914062 157.042969 L 175.273438 157.410156 L 174.332031 158.363281 Z M 175.28125 159.316406 " fill-opacity="1" fill-rule="nonzero"/><path fill="#000000" d="M 178.808594 159.984375 L 178.261719 159.984375 L 178.261719 156.496094 C 178.132812 156.625 177.960938 156.75 177.746094 156.875 C 177.53125 157 177.339844 157.09375 177.171875 157.160156 L 177.171875 156.628906 C 177.476562 156.484375 177.742188 156.308594 177.972656 156.105469 C 178.199219 155.902344 178.363281 155.703125 178.457031 155.511719 L 178.808594 155.511719 Z M 178.808594 159.984375 " fill-opacity="1" fill-rule="nonzero"/><path fill="#000000" d="M 180.207031 157.785156 C 180.207031 157.261719 180.261719 156.835938 180.371094 156.515625 C 180.480469 156.195312 180.640625 155.945312 180.851562 155.773438 C 181.066406 155.597656 181.332031 155.511719 181.660156 155.511719 C 181.894531 155.511719 182.105469 155.558594 182.285156 155.652344 C 182.464844 155.75 182.613281 155.890625 182.730469 156.070312 C 182.847656 156.25 182.941406 156.472656 183.007812 156.734375 C 183.074219 156.992188 183.109375 157.347656 183.109375 157.785156 C 183.109375 158.308594 183.054688 158.730469 182.949219 159.054688 C 182.839844 159.375 182.679688 159.621094 182.46875 159.796875 C 182.253906 159.972656 181.984375 160.058594 181.660156 160.058594 C 181.230469 160.058594 180.890625 159.90625 180.648438 159.597656 C 180.355469 159.226562 180.207031 158.621094 180.207031 157.785156 Z M 180.769531 157.785156 C 180.769531 158.519531 180.855469 159.003906 181.023438 159.246094 C 181.199219 159.488281 181.40625 159.609375 181.660156 159.609375 C 181.910156 159.609375 182.121094 159.488281 182.289062 159.246094 C 182.460938 159.003906 182.546875 158.515625 182.546875 157.785156 C 182.546875 157.050781 182.460938 156.566406 182.289062 156.324219 C 182.121094 156.085938 181.90625 155.960938 181.652344 155.960938 C 181.402344 155.960938 181.199219 156.070312 181.050781 156.285156 C 180.863281 156.554688 180.769531 157.054688 180.769531 157.785156 Z M 180.769531 157.785156 " fill-opacity="1" fill-rule="nonzero"/><path fill="#000000" d="M 186.109375 154.375 L 185.621094 154.410156 C 185.578125 154.21875 185.519531 154.078125 185.4375 153.992188 C 185.304688 153.851562 185.140625 153.777344 184.945312 153.777344 C 184.789062 153.777344 184.652344 153.824219 184.53125 153.910156 C 184.378906 154.023438 184.257812 154.191406 184.167969 154.40625 C 184.078125 154.621094 184.03125 154.933594 184.027344 155.335938 C 184.148438 155.152344 184.289062 155.019531 184.460938 154.933594 C 184.632812 154.84375 184.8125 154.800781 185 154.800781 C 185.328125 154.800781 185.605469 154.921875 185.835938 155.164062 C 186.066406 155.402344 186.183594 155.71875 186.183594 156.097656 C 186.183594 156.351562 186.128906 156.585938 186.019531 156.800781 C 185.910156 157.019531 185.761719 157.183594 185.574219 157.296875 C 185.382812 157.410156 185.167969 157.46875 184.929688 157.46875 C 184.519531 157.46875 184.1875 157.320312 183.925781 157.019531 C 183.667969 156.714844 183.539062 156.21875 183.539062 155.523438 C 183.539062 154.75 183.683594 154.1875 183.96875 153.835938 C 184.21875 153.527344 184.550781 153.375 184.972656 153.375 C 185.289062 153.375 185.546875 153.464844 185.75 153.640625 C 185.949219 153.816406 186.070312 154.0625 186.109375 154.375 Z M 184.105469 156.105469 C 184.105469 156.273438 184.140625 156.433594 184.210938 156.589844 C 184.285156 156.746094 184.382812 156.863281 184.511719 156.945312 C 184.640625 157.023438 184.777344 157.066406 184.921875 157.066406 C 185.128906 157.066406 185.308594 156.980469 185.457031 156.8125 C 185.605469 156.644531 185.679688 156.417969 185.679688 156.128906 C 185.679688 155.851562 185.605469 155.632812 185.460938 155.472656 C 185.3125 155.316406 185.125 155.234375 184.902344 155.234375 C 184.679688 155.234375 184.492188 155.316406 184.335938 155.472656 C 184.179688 155.632812 184.105469 155.84375 184.105469 156.105469 Z M 184.105469 156.105469 " fill-opacity="1" fill-rule="nonzero"/><path stroke-linecap="butt" transform="matrix(0.621367, 0, 0, 0.6225, -106.228339, 125.974706)" fill="none" stroke-linejoin="miter" d="M 475.001187 246.545402 L 475.001187 42.786617 " stroke="#666666" stroke-width="0.2" stroke-opacity="1" stroke-miterlimit="3.25"/><g clip-path="url(#0ac64db2e9)"><path stroke-linecap="square" transform="matrix(0.621367, 0, 0, 0.6225, -106.228339, 125.974706)" fill="none" stroke-linejoin="miter" d="M 816.064797 111.919398 L 832.937868 111.919398 " stroke="#0000ff" stroke-width="2.126" stroke-opacity="1" stroke-miterlimit="3.25"/></g><path fill="#000000" d="M 417.328125 196.585938 L 418.046875 196.523438 C 418.082031 196.8125 418.160156 197.050781 418.285156 197.234375 C 418.410156 197.417969 418.605469 197.570312 418.867188 197.683594 C 419.128906 197.796875 419.425781 197.855469 419.753906 197.855469 C 420.046875 197.855469 420.304688 197.8125 420.527344 197.726562 C 420.75 197.636719 420.917969 197.519531 421.027344 197.367188 C 421.136719 197.21875 421.191406 197.050781 421.191406 196.871094 C 421.191406 196.6875 421.136719 196.53125 421.035156 196.394531 C 420.929688 196.261719 420.753906 196.148438 420.511719 196.054688 C 420.355469 195.992188 420.015625 195.898438 419.480469 195.773438 C 418.949219 195.644531 418.578125 195.523438 418.367188 195.410156 C 418.089844 195.265625 417.886719 195.085938 417.75 194.871094 C 417.613281 194.65625 417.546875 194.414062 417.546875 194.152344 C 417.546875 193.859375 417.628906 193.585938 417.796875 193.328125 C 417.960938 193.074219 418.203125 192.882812 418.519531 192.75 C 418.839844 192.617188 419.195312 192.554688 419.582031 192.554688 C 420.011719 192.554688 420.386719 192.625 420.714844 192.757812 C 421.042969 192.898438 421.296875 193.101562 421.46875 193.371094 C 421.648438 193.640625 421.742188 193.945312 421.753906 194.285156 L 421.019531 194.339844 C 420.980469 193.972656 420.847656 193.695312 420.621094 193.507812 C 420.394531 193.320312 420.058594 193.230469 419.613281 193.230469 C 419.148438 193.230469 418.8125 193.3125 418.601562 193.484375 C 418.390625 193.65625 418.285156 193.859375 418.285156 194.097656 C 418.285156 194.304688 418.359375 194.476562 418.507812 194.613281 C 418.65625 194.746094 419.039062 194.886719 419.660156 195.027344 C 420.285156 195.167969 420.710938 195.289062 420.945312 195.394531 C 421.277344 195.550781 421.527344 195.746094 421.6875 195.984375 C 421.847656 196.222656 421.929688 196.496094 421.929688 196.808594 C 421.929688 197.117188 421.839844 197.40625 421.664062 197.679688 C 421.488281 197.953125 421.234375 198.164062 420.90625 198.316406 C 420.574219 198.46875 420.203125 198.542969 419.789062 198.542969 C 419.269531 198.542969 418.828125 198.46875 418.476562 198.3125 C 418.121094 198.160156 417.84375 197.933594 417.640625 197.625 C 417.441406 197.320312 417.335938 196.972656 417.328125 196.585938 Z M 417.328125 196.585938 " fill-opacity="1" fill-rule="nonzero"/><path fill="#000000" d="M 424.953125 200.144531 L 424.445312 200.144531 C 424.234375 199.875 424.042969 199.59375 423.871094 199.292969 C 423.699219 198.996094 423.550781 198.683594 423.425781 198.363281 C 423.304688 198.042969 423.207031 197.710938 423.140625 197.375 C 423.074219 197.035156 423.039062 196.695312 423.039062 196.351562 C 423.039062 196 423.074219 195.660156 423.144531 195.320312 C 423.210938 194.984375 423.308594 194.660156 423.429688 194.339844 C 423.554688 194.023438 423.703125 193.714844 423.875 193.414062 C 424.046875 193.113281 424.238281 192.828125 424.445312 192.554688 L 424.953125 192.554688 C 424.765625 192.859375 424.597656 193.160156 424.453125 193.457031 C 424.304688 193.75 424.179688 194.054688 424.082031 194.363281 C 423.984375 194.667969 423.90625 194.984375 423.855469 195.308594 C 423.800781 195.632812 423.773438 195.980469 423.773438 196.34375 C 423.773438 196.679688 423.804688 197.015625 423.859375 197.347656 C 423.914062 197.679688 423.996094 198.003906 424.097656 198.324219 C 424.199219 198.644531 424.324219 198.957031 424.46875 199.261719 C 424.613281 199.566406 424.773438 199.859375 424.953125 200.144531 Z M 424.953125 200.144531 " fill-opacity="1" fill-rule="nonzero"/><path fill="#000000" d="M 427.125 197.808594 L 427.226562 198.4375 C 427.027344 198.480469 426.847656 198.5 426.6875 198.5 C 426.429688 198.5 426.234375 198.460938 426.089844 198.375 C 425.949219 198.296875 425.847656 198.191406 425.789062 198.054688 C 425.734375 197.921875 425.703125 197.640625 425.703125 197.21875 L 425.703125 194.800781 L 425.179688 194.800781 L 425.179688 194.246094 L 425.703125 194.246094 L 425.703125 193.210938 L 426.410156 192.78125 L 426.410156 194.246094 L 427.125 194.246094 L 427.125 194.800781 L 426.410156 194.800781 L 426.410156 197.253906 C 426.410156 197.457031 426.421875 197.589844 426.445312 197.648438 C 426.472656 197.707031 426.511719 197.75 426.570312 197.785156 C 426.625 197.820312 426.707031 197.835938 426.8125 197.835938 C 426.890625 197.835938 426.996094 197.828125 427.125 197.808594 Z M 427.125 197.808594 " fill-opacity="1" fill-rule="nonzero"/><path fill="#000000" d="M 429.730469 196.351562 C 429.730469 196.699219 429.695312 197.039062 429.628906 197.375 C 429.558594 197.710938 429.464844 198.039062 429.339844 198.355469 C 429.21875 198.675781 429.070312 198.984375 428.898438 199.285156 C 428.726562 199.582031 428.535156 199.871094 428.328125 200.144531 L 427.816406 200.144531 C 428.003906 199.84375 428.167969 199.542969 428.316406 199.246094 C 428.464844 198.949219 428.585938 198.648438 428.6875 198.339844 C 428.785156 198.027344 428.863281 197.714844 428.917969 197.382812 C 428.96875 197.058594 428.996094 196.714844 428.996094 196.359375 C 428.996094 196.019531 428.96875 195.6875 428.914062 195.355469 C 428.855469 195.023438 428.777344 194.699219 428.675781 194.375 C 428.574219 194.054688 428.445312 193.746094 428.300781 193.4375 C 428.15625 193.132812 427.996094 192.835938 427.816406 192.554688 L 428.328125 192.554688 C 428.539062 192.824219 428.730469 193.105469 428.902344 193.402344 C 429.078125 193.703125 429.226562 194.015625 429.347656 194.335938 C 429.46875 194.660156 429.5625 194.988281 429.628906 195.328125 C 429.699219 195.667969 429.730469 196.007812 429.730469 196.351562 Z M 429.730469 196.351562 " fill-opacity="1" fill-rule="nonzero"/><g clip-path="url(#a066365801)"><path stroke-linecap="square" transform="matrix(0.621367, 0, 0, 0.6225, -106.228339, 125.974706)" fill="none" stroke-linejoin="miter" d="M 816.064797 134.917641 L 832.937868 134.917641 " stroke="#ff0000" stroke-width="2.126" stroke-opacity="1" stroke-miterlimit="3.25"/></g><path fill="#000000" d="M 417.714844 206.96875 L 418.480469 206.96875 L 418.480469 212.761719 L 417.714844 212.761719 Z M 417.714844 206.96875 " fill-opacity="1" fill-rule="nonzero"/><path fill="#000000" d="M 421.847656 214.460938 L 421.335938 214.460938 C 421.128906 214.191406 420.9375 213.910156 420.765625 213.609375 C 420.589844 213.3125 420.445312 213 420.320312 212.679688 C 420.195312 212.359375 420.101562 212.027344 420.035156 211.691406 C 419.96875 211.355469 419.933594 211.015625 419.933594 210.667969 C 419.933594 210.320312 419.96875 209.976562 420.035156 209.636719 C 420.105469 209.300781 420.199219 208.976562 420.324219 208.65625 C 420.449219 208.339844 420.597656 208.03125 420.769531 207.730469 C 420.941406 207.433594 421.128906 207.144531 421.335938 206.871094 L 421.847656 206.871094 C 421.660156 207.175781 421.492188 207.476562 421.347656 207.773438 C 421.199219 208.070312 421.074219 208.371094 420.976562 208.679688 C 420.875 208.984375 420.796875 209.300781 420.746094 209.628906 C 420.695312 209.953125 420.667969 210.296875 420.667969 210.660156 C 420.667969 210.996094 420.695312 211.332031 420.75 211.664062 C 420.808594 211.996094 420.886719 212.324219 420.988281 212.640625 C 421.09375 212.960938 421.21875 213.273438 421.359375 213.578125 C 421.507812 213.882812 421.667969 214.175781 421.847656 214.460938 Z M 421.847656 214.460938 " fill-opacity="1" fill-rule="nonzero"/><path fill="#000000" d="M 424.015625 212.125 L 424.117188 212.753906 C 423.917969 212.796875 423.738281 212.816406 423.582031 212.816406 C 423.324219 212.816406 423.125 212.777344 422.984375 212.695312 C 422.839844 212.613281 422.742188 212.507812 422.683594 212.375 C 422.625 212.238281 422.597656 211.960938 422.597656 211.535156 L 422.597656 209.121094 L 422.074219 209.121094 L 422.074219 208.566406 L 422.597656 208.566406 L 422.597656 207.527344 L 423.304688 207.097656 L 423.304688 208.566406 L 424.015625 208.566406 L 424.015625 209.121094 L 423.304688 209.121094 L 423.304688 211.574219 C 423.304688 211.773438 423.316406 211.90625 423.339844 211.964844 C 423.367188 212.023438 423.40625 212.070312 423.464844 212.101562 C 423.519531 212.136719 423.597656 212.15625 423.707031 212.15625 C 423.785156 212.15625 423.886719 212.144531 424.015625 212.125 Z M 424.015625 212.125 " fill-opacity="1" fill-rule="nonzero"/><path fill="#000000" d="M 426.625 210.667969 C 426.625 211.015625 426.589844 211.355469 426.519531 211.691406 C 426.453125 212.027344 426.355469 212.355469 426.234375 212.675781 C 426.109375 212.992188 425.964844 213.300781 425.789062 213.601562 C 425.617188 213.902344 425.425781 214.1875 425.21875 214.460938 L 424.710938 214.460938 C 424.894531 214.160156 425.058594 213.863281 425.207031 213.566406 C 425.355469 213.269531 425.480469 212.964844 425.578125 212.65625 C 425.679688 212.347656 425.757812 212.03125 425.808594 211.703125 C 425.863281 211.375 425.890625 211.035156 425.890625 210.675781 C 425.890625 210.339844 425.859375 210.003906 425.804688 209.671875 C 425.75 209.339844 425.667969 209.015625 425.566406 208.695312 C 425.464844 208.375 425.339844 208.0625 425.195312 207.753906 C 425.046875 207.449219 424.886719 207.15625 424.710938 206.871094 L 425.21875 206.871094 C 425.429688 207.140625 425.625 207.421875 425.796875 207.722656 C 425.96875 208.019531 426.117188 208.332031 426.238281 208.65625 C 426.359375 208.980469 426.457031 209.308594 426.523438 209.648438 C 426.589844 209.984375 426.625 210.324219 426.625 210.667969 Z M 426.625 210.667969 " fill-opacity="1" fill-rule="nonzero"/><g clip-path="url(#f34797c560)"><path stroke-linecap="square" transform="matrix(0.621367, 0, 0, 0.6225, -106.228339, 125.974706)" fill="none" stroke-linejoin="miter" d="M 816.064797 157.915884 L 832.937868 157.915884 " stroke="#ffff00" stroke-width="2.126" stroke-opacity="1" stroke-miterlimit="3.25"/></g><path fill="#000000" d="M 417.597656 227.078125 L 417.597656 221.289062 L 420.160156 221.289062 C 420.675781 221.289062 421.070312 221.339844 421.335938 221.441406 C 421.605469 221.546875 421.820312 221.730469 421.980469 221.996094 C 422.140625 222.257812 422.21875 222.550781 422.21875 222.867188 C 422.21875 223.277344 422.085938 223.625 421.820312 223.90625 C 421.558594 224.1875 421.148438 224.367188 420.589844 224.445312 C 420.792969 224.542969 420.949219 224.636719 421.054688 224.734375 C 421.277344 224.9375 421.488281 225.195312 421.6875 225.503906 L 422.695312 227.078125 L 421.734375 227.078125 L 420.964844 225.875 C 420.742188 225.527344 420.558594 225.261719 420.414062 225.078125 C 420.269531 224.890625 420.140625 224.761719 420.027344 224.691406 C 419.910156 224.617188 419.796875 224.5625 419.675781 224.535156 C 419.589844 224.515625 419.449219 224.507812 419.25 224.507812 L 418.363281 224.507812 L 418.363281 227.078125 Z M 418.363281 223.84375 L 420.007812 223.84375 C 420.355469 223.84375 420.628906 223.808594 420.828125 223.734375 C 421.027344 223.660156 421.175781 223.546875 421.277344 223.386719 C 421.378906 223.226562 421.429688 223.054688 421.429688 222.867188 C 421.429688 222.59375 421.332031 222.367188 421.132812 222.191406 C 420.933594 222.015625 420.621094 221.925781 420.195312 221.925781 L 418.363281 221.925781 Z M 418.363281 223.84375 " fill-opacity="1" fill-rule="nonzero"/><path fill="#000000" d="M 424.953125 228.78125 L 424.445312 228.78125 C 424.234375 228.507812 424.042969 228.226562 423.871094 227.929688 C 423.699219 227.628906 423.550781 227.316406 423.425781 226.996094 C 423.304688 226.675781 423.207031 226.34375 423.140625 226.011719 C 423.074219 225.671875 423.039062 225.332031 423.039062 224.984375 C 423.039062 224.636719 423.074219 224.292969 423.144531 223.957031 C 423.210938 223.621094 423.308594 223.292969 423.429688 222.976562 C 423.554688 222.65625 423.703125 222.347656 423.875 222.050781 C 424.046875 221.75 424.238281 221.460938 424.445312 221.1875 L 424.953125 221.1875 C 424.765625 221.496094 424.597656 221.796875 424.453125 222.089844 C 424.304688 222.386719 424.179688 222.6875 424.082031 222.996094 C 423.984375 223.304688 423.90625 223.621094 423.855469 223.945312 C 423.800781 224.269531 423.773438 224.613281 423.773438 224.980469 C 423.773438 225.316406 423.804688 225.648438 423.859375 225.980469 C 423.914062 226.3125 423.996094 226.640625 424.097656 226.957031 C 424.199219 227.277344 424.324219 227.589844 424.46875 227.898438 C 424.613281 228.199219 424.773438 228.496094 424.953125 228.78125 Z M 424.953125 228.78125 " fill-opacity="1" fill-rule="nonzero"/><path fill="#000000" d="M 427.125 226.441406 L 427.226562 227.074219 C 427.027344 227.113281 426.847656 227.136719 426.6875 227.136719 C 426.429688 227.136719 426.234375 227.09375 426.089844 227.011719 C 425.949219 226.929688 425.847656 226.824219 425.789062 226.691406 C 425.734375 226.558594 425.703125 226.277344 425.703125 225.851562 L 425.703125 223.4375 L 425.179688 223.4375 L 425.179688 222.882812 L 425.703125 222.882812 L 425.703125 221.84375 L 426.410156 221.417969 L 426.410156 222.882812 L 427.125 222.882812 L 427.125 223.4375 L 426.410156 223.4375 L 426.410156 225.890625 C 426.410156 226.09375 426.421875 226.222656 426.445312 226.28125 C 426.472656 226.339844 426.511719 226.386719 426.570312 226.421875 C 426.625 226.453125 426.707031 226.472656 426.8125 226.472656 C 426.890625 226.472656 426.996094 226.460938 427.125 226.441406 Z M 427.125 226.441406 " fill-opacity="1" fill-rule="nonzero"/><path fill="#000000" d="M 429.730469 224.984375 C 429.730469 225.332031 429.695312 225.675781 429.628906 226.011719 C 429.558594 226.34375 429.464844 226.671875 429.339844 226.992188 C 429.21875 227.3125 429.070312 227.621094 428.898438 227.917969 C 428.726562 228.21875 428.535156 228.503906 428.328125 228.78125 L 427.816406 228.78125 C 428.003906 228.476562 428.167969 228.179688 428.316406 227.882812 C 428.464844 227.585938 428.585938 227.28125 428.6875 226.972656 C 428.785156 226.664062 428.863281 226.347656 428.917969 226.019531 C 428.96875 225.695312 428.996094 225.351562 428.996094 224.992188 C 428.996094 224.65625 428.96875 224.324219 428.914062 223.988281 C 428.855469 223.660156 428.777344 223.332031 428.675781 223.011719 C 428.574219 222.691406 428.445312 222.378906 428.300781 222.074219 C 428.15625 221.765625 427.996094 221.472656 427.816406 221.1875 L 428.328125 221.1875 C 428.539062 221.457031 428.730469 221.738281 428.902344 222.039062 C 429.078125 222.339844 429.226562 222.648438 429.347656 222.972656 C 429.46875 223.296875 429.5625 223.625 429.628906 223.964844 C 429.699219 224.304688 429.730469 224.644531 429.730469 224.984375 Z M 429.730469 224.984375 " fill-opacity="1" fill-rule="nonzero"/><g clip-path="url(#3a59aeb321)"><path stroke-linecap="square" transform="matrix(0.621367, 0, 0, 0.6225, -106.228339, 125.974706)" fill="none" stroke-linejoin="miter" d="M 816.064797 180.920402 L 832.937868 180.920402 " stroke="#ff8000" stroke-width="2.126" stroke-opacity="1" stroke-miterlimit="3.25"/></g><path fill="#000000" d="M 419.238281 241.398438 L 417 235.605469 L 417.828125 235.605469 L 419.328125 239.8125 C 419.449219 240.148438 419.554688 240.464844 419.632812 240.761719 C 419.722656 240.445312 419.828125 240.128906 419.945312 239.8125 L 421.507812 235.605469 L 422.289062 235.605469 L 420.023438 241.398438 Z M 419.238281 241.398438 " fill-opacity="1" fill-rule="nonzero"/><path fill="#000000" d="M 424.953125 243.097656 L 424.445312 243.097656 C 424.234375 242.828125 424.042969 242.546875 423.871094 242.246094 C 423.699219 241.945312 423.550781 241.636719 423.425781 241.316406 C 423.304688 240.992188 423.207031 240.664062 423.140625 240.328125 C 423.074219 239.988281 423.039062 239.648438 423.039062 239.304688 C 423.039062 238.953125 423.074219 238.609375 423.144531 238.273438 C 423.210938 237.9375 423.308594 237.613281 423.429688 237.292969 C 423.554688 236.972656 423.703125 236.664062 423.875 236.367188 C 424.046875 236.066406 424.238281 235.78125 424.445312 235.503906 L 424.953125 235.503906 C 424.765625 235.8125 424.597656 236.113281 424.453125 236.40625 C 424.304688 236.703125 424.179688 237.007812 424.082031 237.316406 C 423.984375 237.621094 423.90625 237.9375 423.855469 238.261719 C 423.800781 238.585938 423.773438 238.933594 423.773438 239.296875 C 423.773438 239.632812 423.804688 239.96875 423.859375 240.296875 C 423.914062 240.632812 423.996094 240.957031 424.097656 241.277344 C 424.199219 241.597656 424.324219 241.90625 424.46875 242.214844 C 424.613281 242.519531 424.773438 242.8125 424.953125 243.097656 Z M 424.953125 243.097656 " fill-opacity="1" fill-rule="nonzero"/><path fill="#000000" d="M 427.125 240.761719 L 427.226562 241.390625 C 427.027344 241.429688 426.847656 241.453125 426.6875 241.453125 C 426.429688 241.453125 426.234375 241.410156 426.089844 241.328125 C 425.949219 241.25 425.847656 241.140625 425.789062 241.007812 C 425.734375 240.875 425.703125 240.59375 425.703125 240.167969 L 425.703125 237.753906 L 425.179688 237.753906 L 425.179688 237.199219 L 425.703125 237.199219 L 425.703125 236.160156 L 426.410156 235.734375 L 426.410156 237.199219 L 427.125 237.199219 L 427.125 237.753906 L 426.410156 237.753906 L 426.410156 240.207031 C 426.410156 240.410156 426.421875 240.542969 426.445312 240.601562 C 426.472656 240.65625 426.511719 240.703125 426.570312 240.738281 C 426.625 240.773438 426.707031 240.789062 426.8125 240.789062 C 426.890625 240.789062 426.996094 240.78125 427.125 240.761719 Z M 427.125 240.761719 " fill-opacity="1" fill-rule="nonzero"/><path fill="#000000" d="M 429.730469 239.304688 C 429.730469 239.652344 429.695312 239.992188 429.628906 240.328125 C 429.558594 240.664062 429.464844 240.992188 429.339844 241.308594 C 429.21875 241.628906 429.070312 241.9375 428.898438 242.238281 C 428.726562 242.535156 428.535156 242.824219 428.328125 243.097656 L 427.816406 243.097656 C 428.003906 242.796875 428.167969 242.496094 428.316406 242.199219 C 428.464844 241.902344 428.585938 241.597656 428.6875 241.289062 C 428.785156 240.980469 428.863281 240.664062 428.917969 240.335938 C 428.96875 240.011719 428.996094 239.667969 428.996094 239.3125 C 428.996094 238.972656 428.96875 238.640625 428.914062 238.308594 C 428.855469 237.976562 428.777344 237.648438 428.675781 237.328125 C 428.574219 237.007812 428.445312 236.695312 428.300781 236.390625 C 428.15625 236.085938 427.996094 235.789062 427.816406 235.503906 L 428.328125 235.503906 C 428.539062 235.777344 428.730469 236.058594 428.902344 236.355469 C 429.078125 236.65625 429.226562 236.96875 429.347656 237.289062 C 429.46875 237.613281 429.5625 237.941406 429.628906 238.28125 C 429.699219 238.621094 429.730469 238.960938 429.730469 239.304688 Z M 429.730469 239.304688 " fill-opacity="1" fill-rule="nonzero"/><g clip-path="url(#914100c14c)"><path stroke-linecap="square" transform="matrix(0.621367, 0, 0, 0.6225, -106.228339, 125.974706)" fill="none" stroke-linejoin="miter" d="M 881.608254 291.606898 L 877.861477 295.353133 M 881.608254 287.854388 L 874.108413 295.353133 M 881.608254 284.108153 L 870.361636 295.353133 " stroke="#ffffff" stroke-width="1" stroke-opacity="1" stroke-miterlimit="10"/></g><g clip-path="url(#accdb644cf)"><path stroke-linecap="square" transform="matrix(0.621367, 0, 0, 0.6225, -106.228339, 125.974706)" fill="none" stroke-linejoin="miter" d="M 880.608695 290.602882 L 876.861917 294.355392 M 880.608695 286.856647 L 873.108853 294.355392 M 880.608695 283.104137 L 869.362076 294.355392 " stroke="#7f7f7f" stroke-width="1" stroke-opacity="1" stroke-miterlimit="10"/></g><g clip-path="url(#085d269975)"><path stroke-linecap="square" transform="matrix(0.621367, 0, 0, 0.6225, -106.228339, 125.974706)" fill="none" stroke-linejoin="miter" d="M 430.002139 295.001727 L 881.99802 295.001727 L 881.99802 29.997962 L 430.002139 29.997962 Z M 430.002139 295.001727 " stroke="#cccccc" stroke-width="1" stroke-opacity="1" stroke-miterlimit="10"/></g></svg>